STARTFONT 2.1
FONT -FontForge-Syncopate-Book-R-Normal--24-240-72-72-P-180-ISO10646-1
SIZE 24 72 72
FONTBOUNDINGBOX 44 27 -5 -6
COMMENT "Generated by fontforge, http://fontforge.sourceforge.net"
COMMENT "Copyright (c) 2010 by Brian J. Bonislawsky DBA Astigmatic (AOETI). All rights reserved. Available under the Apache 2.0 licence.http://www.apache.org/licenses/LICENSE-2.0.html"
STARTPROPERTIES 39
FOUNDRY "FontForge"
FAMILY_NAME "Syncopate"
WEIGHT_NAME "Book"
SLANT "R"
SETWIDTH_NAME "Normal"
ADD_STYLE_NAME ""
PIXEL_SIZE 24
POINT_SIZE 240
RESOLUTION_X 72
RESOLUTION_Y 72
SPACING "P"
AVERAGE_WIDTH 180
CHARSET_REGISTRY "ISO10646"
CHARSET_ENCODING "1"
FONTNAME_REGISTRY ""
CHARSET_COLLECTIONS "ISO8859-2 ISO8859-9 ISO8859-4 ISO10646-1"
FONT_NAME "Syncopate-Regular"
FACE_NAME "Syncopate Regular"
COPYRIGHT "Copyright (c) 2010 by Brian J. Bonislawsky DBA Astigmatic (AOETI). All rights reserved. Available under the Apache 2.0 licence.http://www.apache.org/licenses/LICENSE-2.0.html"
FONT_VERSION "001.001"
FONT_ASCENT 19
FONT_DESCENT 5
UNDERLINE_POSITION -2
UNDERLINE_THICKNESS 2
X_HEIGHT 15
CAP_HEIGHT 15
RAW_ASCENT 799
RAW_DESCENT 200
NORM_SPACE 9
RELATIVE_WEIGHT 40
RELATIVE_SETWIDTH 70
SUPERSCRIPT_X 0
SUPERSCRIPT_Y 6
SUPERSCRIPT_SIZE 4
SUBSCRIPT_X 0
SUBSCRIPT_Y 6
SUBSCRIPT_SIZE 4
AVG_LOWERCASE_WIDTH 206
AVG_UPPERCASE_WIDTH 197
ENDPROPERTIES
CHARS 370
STARTCHAR space
ENCODING 32
SWIDTH 375 0
DWIDTH 9 0
BBX 1 1 0 0
BITMAP
00
ENDCHAR
STARTCHAR exclam
ENCODING 33
SWIDTH 274 0
DWIDTH 7 0
BBX 1 16 2 0
BITMAP
80
80
80
80
80
80
80
80
80
80
80
80
00
00
80
80
ENDCHAR
STARTCHAR quotedbl
ENCODING 34
SWIDTH 290 0
DWIDTH 7 0
BBX 5 5 1 11
BITMAP
88
88
88
88
88
ENDCHAR
STARTCHAR numbersign
ENCODING 35
SWIDTH 701 0
DWIDTH 17 0
BBX 14 16 1 0
BITMAP
0208
0410
0410
0410
0410
3FFC
0820
0820
0820
1040
FFF8
1040
1040
1040
2080
2080
ENDCHAR
STARTCHAR dollar
ENCODING 36
SWIDTH 767 0
DWIDTH 18 0
BBX 14 18 2 -1
BITMAP
0200
1FC0
6230
8208
8200
8200
4200
3200
0F00
02E0
0218
0204
0204
0204
8204
6218
1FE0
0200
ENDCHAR
STARTCHAR percent
ENCODING 37
SWIDTH 992 0
DWIDTH 24 0
BBX 21 16 1 0
BITMAP
3E0040
410080
808100
808200
808400
808800
411000
3E2000
0023E0
004410
008808
010808
020808
040808
080410
1003E0
ENDCHAR
STARTCHAR ampersand
ENCODING 38
SWIDTH 926 0
DWIDTH 22 0
BBX 19 16 2 0
BITMAP
07E000
081800
100800
100800
103000
086000
0F8000
0E0000
3B0040
618040
C06080
803080
800D00
C00700
701F80
1FF0E0
ENDCHAR
STARTCHAR quotesingle
ENCODING 39
SWIDTH 140 0
DWIDTH 3 0
BBX 1 5 1 11
BITMAP
80
80
80
80
80
ENDCHAR
STARTCHAR parenleft
ENCODING 40
SWIDTH 420 0
DWIDTH 10 0
BBX 6 20 2 -2
BITMAP
04
08
10
20
40
40
80
80
80
80
80
80
80
80
40
40
20
10
08
04
ENDCHAR
STARTCHAR parenright
ENCODING 41
SWIDTH 420 0
DWIDTH 10 0
BBX 6 20 2 -2
BITMAP
80
40
20
10
08
08
08
04
04
04
04
04
04
08
08
18
10
20
40
80
ENDCHAR
STARTCHAR asterisk
ENCODING 42
SWIDTH 503 0
DWIDTH 12 0
BBX 9 9 1 7
BITMAP
0800
0800
C980
3E00
0800
3E00
C980
0800
0800
ENDCHAR
STARTCHAR plus
ENCODING 43
SWIDTH 634 0
DWIDTH 15 0
BBX 11 11 2 2
BITMAP
0400
0400
0400
0400
0400
FFE0
0400
0400
0400
0400
0400
ENDCHAR
STARTCHAR comma
ENCODING 44
SWIDTH 185 0
DWIDTH 4 0
BBX 2 5 1 -2
BITMAP
40
40
80
80
80
ENDCHAR
STARTCHAR hyphen
ENCODING 45
SWIDTH 540 0
DWIDTH 13 0
BBX 9 1 2 7
BITMAP
FF80
ENDCHAR
STARTCHAR period
ENCODING 46
SWIDTH 185 0
DWIDTH 4 0
BBX 1 3 1 0
BITMAP
80
80
80
ENDCHAR
STARTCHAR slash
ENCODING 47
SWIDTH 500 0
DWIDTH 12 0
BBX 9 17 1 0
BITMAP
0080
0100
0100
0200
0200
0400
0400
0800
0800
0800
1000
1000
2000
2000
4000
4000
8000
ENDCHAR
STARTCHAR zero
ENCODING 48
SWIDTH 833 0
DWIDTH 20 0
BBX 16 16 2 0
BITMAP
07E0
1818
3004
6002
4002
8001
8001
8001
8001
8001
8001
4002
4006
300C
1818
07E0
ENDCHAR
STARTCHAR one
ENCODING 49
SWIDTH 339 0
DWIDTH 8 0
BBX 5 16 0 0
BITMAP
18
68
88
08
08
08
08
08
08
08
08
08
08
08
08
08
ENDCHAR
STARTCHAR two
ENCODING 50
SWIDTH 728 0
DWIDTH 17 0
BBX 14 16 1 0
BITMAP
1FC0
6030
8008
0004
0004
0004
0004
0008
0010
0020
00C0
0100
0600
1800
6000
FFFC
ENDCHAR
STARTCHAR three
ENCODING 51
SWIDTH 726 0
DWIDTH 17 0
BBX 15 16 1 0
BITMAP
1FE0
6030
8008
0004
0004
0008
0030
07C0
0038
0004
0002
0002
0002
8004
6018
1FE0
ENDCHAR
STARTCHAR four
ENCODING 52
SWIDTH 769 0
DWIDTH 18 0
BBX 17 16 1 0
BITMAP
001800
002800
004800
008800
010800
020800
040800
080800
100800
200800
400800
FFFF80
000800
000800
000800
000800
ENDCHAR
STARTCHAR five
ENCODING 53
SWIDTH 738 0
DWIDTH 18 0
BBX 15 16 1 0
BITMAP
7FFC
4000
4000
4000
4000
4000
7FE0
4018
0004
0002
0002
0002
0002
8004
6018
1FE0
ENDCHAR
STARTCHAR six
ENCODING 54
SWIDTH 772 0
DWIDTH 19 0
BBX 16 16 2 0
BITMAP
03F0
180C
2000
4000
4000
87F0
980C
A002
C001
8001
8001
C001
4001
2002
180C
07F0
ENDCHAR
STARTCHAR seven
ENCODING 55
SWIDTH 669 0
DWIDTH 16 0
BBX 15 16 0 0
BITMAP
FFFE
0004
0004
0008
0010
0010
0020
0020
0040
0080
0080
0100
0300
0200
0400
0C00
ENDCHAR
STARTCHAR eight
ENCODING 56
SWIDTH 793 0
DWIDTH 19 0
BBX 16 16 2 0
BITMAP
0FF0
300C
6006
4002
4002
2004
1818
07E0
1838
6006
C001
8001
8001
4002
300C
0FF0
ENDCHAR
STARTCHAR nine
ENCODING 57
SWIDTH 776 0
DWIDTH 19 0
BBX 16 16 1 0
BITMAP
0FE0
3018
4004
8002
8002
8001
8001
8003
4005
3019
0FE1
0002
0002
0004
6018
1FE0
ENDCHAR
STARTCHAR colon
ENCODING 58
SWIDTH 245 0
DWIDTH 6 0
BBX 1 11 2 0
BITMAP
80
80
80
00
00
00
00
00
80
80
80
ENDCHAR
STARTCHAR semicolon
ENCODING 59
SWIDTH 234 0
DWIDTH 6 0
BBX 2 13 1 -2
BITMAP
40
40
40
00
00
00
00
00
40
40
80
80
80
ENDCHAR
STARTCHAR less
ENCODING 60
SWIDTH 634 0
DWIDTH 15 0
BBX 11 11 2 2
BITMAP
0020
00C0
0700
1C00
6000
8000
6000
1C00
0700
00C0
0020
ENDCHAR
STARTCHAR equal
ENCODING 61
SWIDTH 634 0
DWIDTH 15 0
BBX 11 5 2 5
BITMAP
FFE0
0000
0000
0000
FFE0
ENDCHAR
STARTCHAR greater
ENCODING 62
SWIDTH 634 0
DWIDTH 15 0
BBX 11 11 2 2
BITMAP
8000
6000
1C00
0700
00C0
0020
00C0
0700
1C00
6000
8000
ENDCHAR
STARTCHAR question
ENCODING 63
SWIDTH 568 0
DWIDTH 14 0
BBX 10 16 2 0
BITMAP
3E00
4180
8040
0040
0040
0040
0080
0100
0600
3800
2000
2000
0000
0000
2000
2000
ENDCHAR
STARTCHAR at
ENCODING 64
SWIDTH 1016 0
DWIDTH 24 0
BBX 21 17 2 0
BITMAP
00FE00
070180
080060
100010
20FA10
410608
C20408
840408
840408
840418
840410
821C60
41E3C0
200000
100080
0C0300
03FC00
ENDCHAR
STARTCHAR A
ENCODING 65
SWIDTH 812 0
DWIDTH 20 0
BBX 17 16 1 0
BITMAP
008000
014000
014000
022000
022000
041000
0C1000
080800
100400
100400
3FFE00
200200
400100
400100
800080
800080
ENDCHAR
STARTCHAR B
ENCODING 66
SWIDTH 836 0
DWIDTH 20 0
BBX 16 16 3 0
BITMAP
FFF8
8004
8002
8002
8002
8002
800C
FFF0
800C
8002
8001
8001
8001
8001
8006
FFF8
ENDCHAR
STARTCHAR C
ENCODING 67
SWIDTH 869 0
DWIDTH 21 0
BBX 17 16 2 0
BITMAP
03FC00
0C0300
100080
200000
400000
800000
800000
800000
800000
800000
800000
400000
200000
100080
0C0300
03F800
ENDCHAR
STARTCHAR D
ENCODING 68
SWIDTH 910 0
DWIDTH 22 0
BBX 17 16 3 0
BITMAP
FFF000
800C00
800200
800100
800100
800080
800080
800080
800080
800080
800080
800100
800100
800200
800C00
FFF000
ENDCHAR
STARTCHAR E
ENCODING 69
SWIDTH 754 0
DWIDTH 18 0
BBX 14 16 3 0
BITMAP
FFFC
8000
8000
8000
8000
8000
8000
FFF8
8000
8000
8000
8000
8000
8000
8000
FFFC
ENDCHAR
STARTCHAR F
ENCODING 70
SWIDTH 687 0
DWIDTH 17 0
BBX 13 16 3 0
BITMAP
FFF8
8000
8000
8000
8000
8000
8000
FFF0
8000
8000
8000
8000
8000
8000
8000
8000
ENDCHAR
STARTCHAR G
ENCODING 71
SWIDTH 910 0
DWIDTH 22 0
BBX 18 16 2 0
BITMAP
03FC00
0C0380
100040
200000
400000
800000
800000
800000
803FC0
800040
800040
400040
200040
100040
0C00C0
03FF00
ENDCHAR
STARTCHAR H
ENCODING 72
SWIDTH 949 0
DWIDTH 23 0
BBX 17 16 3 0
BITMAP
800080
800080
800080
800080
800080
800080
800080
FFFF80
800080
800080
800080
800080
800080
800080
800080
800080
ENDCHAR
STARTCHAR I
ENCODING 73
SWIDTH 287 0
DWIDTH 7 0
BBX 1 16 3 0
BITMAP
80
80
80
80
80
80
80
80
80
80
80
80
80
80
80
80
ENDCHAR
STARTCHAR J
ENCODING 74
SWIDTH 590 0
DWIDTH 14 0
BBX 12 16 0 0
BITMAP
0010
0010
0010
0010
0010
0010
0010
0010
0010
0010
0010
0010
0010
0020
C040
3F80
ENDCHAR
STARTCHAR K
ENCODING 75
SWIDTH 806 0
DWIDTH 19 0
BBX 15 16 3 0
BITMAP
800E
8010
8060
8080
8300
8C00
9800
E000
B000
8800
8600
8180
80C0
8030
8018
8006
ENDCHAR
STARTCHAR L
ENCODING 76
SWIDTH 701 0
DWIDTH 17 0
BBX 13 16 3 0
BITMAP
8000
8000
8000
8000
8000
8000
8000
8000
8000
8000
8000
8000
8000
8000
8000
FFF8
ENDCHAR
STARTCHAR M
ENCODING 77
SWIDTH 1139 0
DWIDTH 27 0
BBX 22 16 3 0
BITMAP
800004
C0000C
A00014
A00014
900024
880044
880044
840084
820104
820104
810204
808404
808404
804804
803004
803004
ENDCHAR
STARTCHAR N
ENCODING 78
SWIDTH 936 0
DWIDTH 22 0
BBX 16 16 3 0
BITMAP
8001
C001
A001
9001
8801
8401
8201
8101
8081
8041
8021
8011
8009
8005
8003
8001
ENDCHAR
STARTCHAR O
ENCODING 79
SWIDTH 983 0
DWIDTH 24 0
BBX 20 16 2 0
BITMAP
03FC00
0C0300
100080
200040
400020
800010
800010
800010
800010
800010
800010
400020
200040
100080
0C0300
03FC00
ENDCHAR
STARTCHAR P
ENCODING 80
SWIDTH 818 0
DWIDTH 20 0
BBX 15 16 3 0
BITMAP
FFF0
8008
8004
8002
8002
8002
8002
8004
8008
FFF0
8000
8000
8000
8000
8000
8000
ENDCHAR
STARTCHAR Q
ENCODING 81
SWIDTH 983 0
DWIDTH 24 0
BBX 22 16 2 0
BITMAP
03FC00
0C0300
100080
200040
400020
800010
800010
800010
800010
800010
800010
400020
200C60
1007C0
0C0370
03FC0C
ENDCHAR
STARTCHAR R
ENCODING 82
SWIDTH 833 0
DWIDTH 20 0
BBX 15 16 3 0
BITMAP
FFE0
8018
800C
8004
8004
8004
8004
8018
FFE0
8020
8020
8010
8008
8004
8004
8002
ENDCHAR
STARTCHAR S
ENCODING 83
SWIDTH 787 0
DWIDTH 19 0
BBX 15 16 2 0
BITMAP
1FE0
6018
8004
8000
8000
4000
3800
0780
0070
000C
0002
0002
0002
8004
6018
1FE0
ENDCHAR
STARTCHAR T
ENCODING 84
SWIDTH 708 0
DWIDTH 17 0
BBX 15 16 1 0
BITMAP
FFFE
0100
0100
0100
0100
0100
0100
0100
0100
0100
0100
0100
0100
0100
0100
0100
ENDCHAR
STARTCHAR U
ENCODING 85
SWIDTH 891 0
DWIDTH 21 0
BBX 16 16 3 0
BITMAP
8001
8001
8001
8001
8001
8001
8001
8001
8001
8001
8001
8001
8001
4002
300C
0FF0
ENDCHAR
STARTCHAR V
ENCODING 86
SWIDTH 817 0
DWIDTH 20 0
BBX 19 16 0 0
BITMAP
C00060
400040
200080
200080
100100
100100
080200
080200
040400
060C00
020800
031800
011000
00A000
00A000
004000
ENDCHAR
STARTCHAR W
ENCODING 87
SWIDTH 1266 0
DWIDTH 30 0
BBX 29 16 1 0
BITMAP
80020008
C0050018
40050010
400D8010
20088020
20088020
10104040
10104040
182020C0
08202080
0C603180
04401100
04401100
02800A00
02800A00
01000400
ENDCHAR
STARTCHAR X
ENCODING 88
SWIDTH 821 0
DWIDTH 20 0
BBX 15 16 2 0
BITMAP
C006
400C
2008
1010
0820
0440
0280
0100
0280
06C0
0440
0820
1010
2008
4004
C006
ENDCHAR
STARTCHAR Y
ENCODING 89
SWIDTH 763 0
DWIDTH 18 0
BBX 15 16 2 0
BITMAP
8002
4004
2008
1010
1830
0860
0440
0280
0380
0100
0100
0100
0100
0100
0100
0100
ENDCHAR
STARTCHAR Z
ENCODING 90
SWIDTH 728 0
DWIDTH 17 0
BBX 14 16 2 0
BITMAP
FFFC
0008
0010
0020
0060
00C0
0180
0100
0200
0400
0800
1000
3000
6000
4000
FFFC
ENDCHAR
STARTCHAR bracketleft
ENCODING 91
SWIDTH 409 0
DWIDTH 10 0
BBX 6 18 3 -1
BITMAP
FC
80
80
80
80
80
80
80
80
80
80
80
80
80
80
80
80
FC
ENDCHAR
STARTCHAR backslash
ENCODING 92
SWIDTH 500 0
DWIDTH 12 0
BBX 9 17 1 0
BITMAP
8000
4000
4000
2000
2000
1000
1000
0800
0800
0800
0400
0400
0200
0200
0100
0100
0080
ENDCHAR
STARTCHAR bracketright
ENCODING 93
SWIDTH 409 0
DWIDTH 10 0
BBX 6 18 1 -1
BITMAP
FC
04
04
04
04
04
04
04
04
04
04
04
04
04
04
04
04
FC
ENDCHAR
STARTCHAR asciicircum
ENCODING 94
SWIDTH 459 0
DWIDTH 11 0
BBX 9 7 1 9
BITMAP
0800
1400
3600
2200
4100
4100
8080
ENDCHAR
STARTCHAR underscore
ENCODING 95
SWIDTH 500 0
DWIDTH 12 0
BBX 12 1 0 -3
BITMAP
FFF0
ENDCHAR
STARTCHAR grave
ENCODING 96
SWIDTH 527 0
DWIDTH 13 0
BBX 6 3 2 13
BITMAP
C0
30
0C
ENDCHAR
STARTCHAR a
ENCODING 97
SWIDTH 888 0
DWIDTH 21 0
BBX 17 16 1 0
BITMAP
03F800
1C0600
200100
000080
000080
000080
003F80
07C080
380080
400080
800080
800080
800080
800180
601E80
1FF080
ENDCHAR
STARTCHAR b
ENCODING 98
SWIDTH 836 0
DWIDTH 20 0
BBX 16 16 3 0
BITMAP
FFF8
8004
8002
8002
8002
8002
800C
FFF0
800C
8002
8001
8001
8001
8001
8006
FFF8
ENDCHAR
STARTCHAR c
ENCODING 99
SWIDTH 869 0
DWIDTH 21 0
BBX 17 16 2 0
BITMAP
03FC00
0C0300
100080
200000
400000
800000
800000
800000
800000
800000
800000
400000
200000
100080
0C0300
03F800
ENDCHAR
STARTCHAR d
ENCODING 100
SWIDTH 910 0
DWIDTH 22 0
BBX 17 16 3 0
BITMAP
FFF000
800C00
800200
800100
800100
800080
800080
800080
800080
800080
800080
800100
800100
800200
800C00
FFF000
ENDCHAR
STARTCHAR e
ENCODING 101
SWIDTH 910 0
DWIDTH 22 0
BBX 18 16 2 0
BITMAP
03F800
0C0600
100100
200080
400080
800040
800040
FFFFC0
800000
800000
400000
400000
200000
100080
0C0300
03FC00
ENDCHAR
STARTCHAR f
ENCODING 102
SWIDTH 817 0
DWIDTH 20 0
BBX 15 16 3 0
BITMAP
0FFE
3000
4000
8000
8000
8000
8000
FFFE
8000
8000
8000
8000
8000
8000
8000
8000
ENDCHAR
STARTCHAR g
ENCODING 103
SWIDTH 910 0
DWIDTH 22 0
BBX 18 16 2 0
BITMAP
03FC00
0C0380
100040
200000
400000
800000
800000
800000
803FC0
800040
800040
400040
200040
100040
0C00C0
03FF00
ENDCHAR
STARTCHAR h
ENCODING 104
SWIDTH 949 0
DWIDTH 23 0
BBX 17 16 3 0
BITMAP
800080
800080
800080
800080
800080
800080
800080
FFFF80
800080
800080
800080
800080
800080
800080
800080
800080
ENDCHAR
STARTCHAR i
ENCODING 105
SWIDTH 287 0
DWIDTH 7 0
BBX 1 16 3 0
BITMAP
80
80
80
80
80
80
80
80
80
80
80
80
80
80
80
80
ENDCHAR
STARTCHAR j
ENCODING 106
SWIDTH 590 0
DWIDTH 14 0
BBX 12 16 0 0
BITMAP
0010
0010
0010
0010
0010
0010
0010
0010
0010
0010
0010
0010
0010
0020
C040
3F80
ENDCHAR
STARTCHAR k
ENCODING 107
SWIDTH 867 0
DWIDTH 21 0
BBX 16 16 3 0
BITMAP
8002
8002
8004
8008
8018
8020
80C0
FF00
80E0
8010
8008
8004
8002
8002
8001
8001
ENDCHAR
STARTCHAR l
ENCODING 108
SWIDTH 709 0
DWIDTH 17 0
BBX 14 16 3 0
BITMAP
8000
8000
8000
8000
8000
8000
8000
8000
8000
8000
8000
8000
8000
8000
6000
1FFC
ENDCHAR
STARTCHAR m
ENCODING 109
SWIDTH 1246 0
DWIDTH 30 0
BBX 24 16 3 0
BITMAP
8780F8
984304
A02C02
C01001
801001
801001
801001
801001
801001
801001
801001
801001
801001
801001
801001
801001
ENDCHAR
STARTCHAR n
ENCODING 110
SWIDTH 933 0
DWIDTH 22 0
BBX 17 16 3 0
BITMAP
81FC00
8E0200
B00100
C00080
800080
800080
800080
800080
800080
800080
800080
800080
800080
800080
800080
800080
ENDCHAR
STARTCHAR o
ENCODING 111
SWIDTH 983 0
DWIDTH 24 0
BBX 20 16 2 0
BITMAP
03FC00
0C0300
100080
200040
400020
800010
800010
800010
800010
800010
800010
400020
200040
100080
0C0300
03FC00
ENDCHAR
STARTCHAR p
ENCODING 112
SWIDTH 818 0
DWIDTH 20 0
BBX 15 16 3 0
BITMAP
FFF0
8008
8004
8002
8002
8002
8002
8004
8008
FFF0
8000
8000
8000
8000
8000
8000
ENDCHAR
STARTCHAR q
ENCODING 113
SWIDTH 983 0
DWIDTH 24 0
BBX 21 16 2 0
BITMAP
03FC00
0C0300
100080
200040
400020
800010
800010
800010
800010
800010
800010
400020
200040
100080
0C03C0
03FC38
ENDCHAR
STARTCHAR r
ENCODING 114
SWIDTH 609 0
DWIDTH 15 0
BBX 12 16 3 0
BITMAP
83F0
8C00
B000
C000
8000
8000
8000
8000
8000
8000
8000
8000
8000
8000
8000
8000
ENDCHAR
STARTCHAR s
ENCODING 115
SWIDTH 787 0
DWIDTH 19 0
BBX 15 16 2 0
BITMAP
1FE0
6018
8004
8000
8000
4000
3800
0780
0070
000C
0002
0002
0002
8004
6018
1FE0
ENDCHAR
STARTCHAR t
ENCODING 116
SWIDTH 708 0
DWIDTH 17 0
BBX 15 16 1 0
BITMAP
FFFE
0100
0100
0100
0100
0100
0100
0100
0100
0100
0100
0100
0100
0100
0100
0100
ENDCHAR
STARTCHAR u
ENCODING 117
SWIDTH 931 0
DWIDTH 22 0
BBX 16 16 3 0
BITMAP
8001
8001
8001
8001
8001
8001
8001
8001
8001
8001
8001
8001
8003
400D
2031
1FC1
ENDCHAR
STARTCHAR v
ENCODING 118
SWIDTH 817 0
DWIDTH 20 0
BBX 19 16 0 0
BITMAP
C00060
400040
200080
200080
100100
100100
080200
080200
040400
060C00
020800
031800
011000
00A000
00A000
004000
ENDCHAR
STARTCHAR w
ENCODING 119
SWIDTH 1266 0
DWIDTH 30 0
BBX 29 16 1 0
BITMAP
80020008
C0050018
40050010
400D8010
20088020
20088020
10104040
10104040
182020C0
08202080
0C603180
04401100
04401100
02800A00
02800A00
01000400
ENDCHAR
STARTCHAR x
ENCODING 120
SWIDTH 821 0
DWIDTH 20 0
BBX 15 16 2 0
BITMAP
C006
400C
2008
1010
0820
0440
0280
0100
0280
06C0
0440
0820
1010
2008
4004
C006
ENDCHAR
STARTCHAR y
ENCODING 121
SWIDTH 911 0
DWIDTH 22 0
BBX 17 16 2 0
BITMAP
800080
800080
800080
800080
800080
800080
800180
400280
200480
101880
0FE080
000080
000100
800200
701C00
0FF000
ENDCHAR
STARTCHAR z
ENCODING 122
SWIDTH 728 0
DWIDTH 17 0
BBX 14 16 2 0
BITMAP
FFFC
0008
0010
0020
0060
00C0
0180
0100
0200
0400
0800
1000
3000
6000
4000
FFFC
ENDCHAR
STARTCHAR braceleft
ENCODING 123
SWIDTH 386 0
DWIDTH 9 0
BBX 8 18 0 -1
BITMAP
0F
18
10
10
10
10
10
20
C0
20
10
10
10
10
10
10
10
0F
ENDCHAR
STARTCHAR bar
ENCODING 124
SWIDTH 259 0
DWIDTH 6 0
BBX 1 24 2 -6
BITMAP
80
80
80
80
80
80
80
80
80
80
80
80
80
80
80
80
80
80
80
80
80
80
80
80
ENDCHAR
STARTCHAR braceright
ENCODING 125
SWIDTH 386 0
DWIDTH 9 0
BBX 8 18 1 -1
BITMAP
F0
18
08
08
08
08
08
04
03
04
08
08
08
08
08
08
08
F0
ENDCHAR
STARTCHAR asciitilde
ENCODING 126
SWIDTH 634 0
DWIDTH 15 0
BBX 12 3 2 7
BITMAP
7810
8610
81E0
ENDCHAR
STARTCHAR nonbreakingspace
ENCODING 160
SWIDTH 375 0
DWIDTH 9 0
BBX 1 1 0 0
BITMAP
00
ENDCHAR
STARTCHAR exclamdown
ENCODING 161
SWIDTH 274 0
DWIDTH 7 0
BBX 1 16 2 0
BITMAP
80
80
00
00
80
80
80
80
80
80
80
80
80
80
80
80
ENDCHAR
STARTCHAR cent
ENCODING 162
SWIDTH 736 0
DWIDTH 18 0
BBX 14 18 2 -1
BITMAP
0100
0100
07E0
1918
2104
4100
8100
8100
8100
8100
8100
8100
4100
2104
1918
07E0
0100
0100
ENDCHAR
STARTCHAR sterling
ENCODING 163
SWIDTH 792 0
DWIDTH 19 0
BBX 16 16 2 0
BITMAP
03F8
0406
0800
1000
1000
1000
1000
FFF0
1000
1000
1000
1000
1000
1000
3F01
C0FE
ENDCHAR
STARTCHAR currency
ENCODING 164
SWIDTH 560 0
DWIDTH 13 0
BBX 11 11 1 3
BITMAP
8020
5F40
3180
60C0
4040
4040
4040
60C0
3180
5F40
8020
ENDCHAR
STARTCHAR yen
ENCODING 165
SWIDTH 811 0
DWIDTH 19 0
BBX 15 16 2 0
BITMAP
8002
4004
2008
1010
1830
0820
0440
FEFE
0100
0100
FFFE
0100
0100
0100
0100
0100
ENDCHAR
STARTCHAR brokenbar
ENCODING 166
SWIDTH 259 0
DWIDTH 6 0
BBX 1 21 2 -4
BITMAP
80
80
80
80
80
80
80
80
80
00
00
00
80
80
80
80
80
80
80
80
80
ENDCHAR
STARTCHAR section
ENCODING 167
SWIDTH 500 0
DWIDTH 12 0
BBX 9 16 1 0
BITMAP
3E00
6100
4000
4000
3000
6C00
8300
8080
C080
6180
1B00
0600
0100
0100
4100
3E00
ENDCHAR
STARTCHAR dieresis
ENCODING 168
SWIDTH 527 0
DWIDTH 13 0
BBX 6 2 3 13
BITMAP
84
84
ENDCHAR
STARTCHAR copyright
ENCODING 169
SWIDTH 770 0
DWIDTH 19 0
BBX 16 16 1 0
BITMAP
07E0
1818
3004
43C2
4422
8801
9001
9001
9001
9001
8801
4422
43C2
2004
1818
07E0
ENDCHAR
STARTCHAR ordfeminine
ENCODING 170
SWIDTH 497 0
DWIDTH 12 0
BBX 10 10 1 6
BITMAP
3F00
4080
0040
1FC0
6040
8040
81C0
7F40
0000
FFC0
ENDCHAR
STARTCHAR guillemotleft
ENCODING 171
SWIDTH 440 0
DWIDTH 11 0
BBX 8 9 1 4
BITMAP
11
22
66
44
88
44
66
22
11
ENDCHAR
STARTCHAR logicalnot
ENCODING 172
SWIDTH 634 0
DWIDTH 15 0
BBX 11 5 2 5
BITMAP
FFE0
0020
0020
0020
0020
ENDCHAR
STARTCHAR uni00AD
ENCODING 173
SWIDTH 540 0
DWIDTH 13 0
BBX 9 1 2 7
BITMAP
FF80
ENDCHAR
STARTCHAR registered
ENCODING 174
SWIDTH 600 0
DWIDTH 14 0
BBX 12 12 1 4
BITMAP
0F00
30C0
4F20
48A0
8890
8F10
8910
8990
48A0
4020
30C0
0F00
ENDCHAR
STARTCHAR macron
ENCODING 175
SWIDTH 527 0
DWIDTH 13 0
BBX 6 1 3 14
BITMAP
FC
ENDCHAR
STARTCHAR degree
ENCODING 176
SWIDTH 373 0
DWIDTH 9 0
BBX 6 6 2 10
BITMAP
30
48
84
84
48
30
ENDCHAR
STARTCHAR plusminus
ENCODING 177
SWIDTH 634 0
DWIDTH 15 0
BBX 11 12 2 1
BITMAP
0400
0400
0400
0400
FFE0
0400
0400
0400
0400
0000
0000
FFE0
ENDCHAR
STARTCHAR twosuperior
ENCODING 178
SWIDTH 511 0
DWIDTH 12 0
BBX 10 10 1 6
BITMAP
7F00
8080
0040
0040
0080
0100
0600
1800
7000
FFC0
ENDCHAR
STARTCHAR threesuperior
ENCODING 179
SWIDTH 512 0
DWIDTH 12 0
BBX 10 10 1 6
BITMAP
7F00
8080
0040
0180
1E00
0180
0040
0040
8080
7F00
ENDCHAR
STARTCHAR acute
ENCODING 180
SWIDTH 527 0
DWIDTH 13 0
BBX 6 3 5 13
BITMAP
0C
30
C0
ENDCHAR
STARTCHAR micro
ENCODING 181
SWIDTH 705 0
DWIDTH 17 0
BBX 14 16 1 -5
BITMAP
1004
1004
300C
2008
2008
2008
2008
2018
6030
50C8
4F08
4000
4000
8000
8000
8000
ENDCHAR
STARTCHAR paragraph
ENCODING 182
SWIDTH 585 0
DWIDTH 14 0
BBX 9 16 2 0
BITMAP
3F80
7C80
FC80
FC80
FC80
FC80
FC80
7C80
3C80
0480
0480
0480
0480
0480
0480
0480
ENDCHAR
STARTCHAR periodcentered
ENCODING 183
SWIDTH 185 0
DWIDTH 4 0
BBX 2 3 1 7
BITMAP
C0
C0
C0
ENDCHAR
STARTCHAR cedilla
ENCODING 184
SWIDTH 527 0
DWIDTH 13 0
BBX 5 5 4 -5
BITMAP
20
70
08
08
F0
ENDCHAR
STARTCHAR onesuperior
ENCODING 185
SWIDTH 261 0
DWIDTH 6 0
BBX 4 10 0 6
BITMAP
30
D0
10
10
10
10
10
10
10
10
ENDCHAR
STARTCHAR ordmasculine
ENCODING 186
SWIDTH 520 0
DWIDTH 12 0
BBX 11 10 1 6
BITMAP
1F00
60C0
8020
8020
8020
8020
60C0
1F00
0000
7FC0
ENDCHAR
STARTCHAR guillemotright
ENCODING 187
SWIDTH 440 0
DWIDTH 11 0
BBX 8 9 2 4
BITMAP
88
44
66
22
11
22
66
44
88
ENDCHAR
STARTCHAR onequarter
ENCODING 188
SWIDTH 857 0
DWIDTH 21 0
BBX 19 16 0 0
BITMAP
300200
D00400
100800
101000
102000
102000
104000
108080
110180
020280
040480
040880
081080
103FE0
200080
400080
ENDCHAR
STARTCHAR onehalf
ENCODING 189
SWIDTH 937 0
DWIDTH 22 0
BBX 20 16 0 0
BITMAP
300200
D00400
100800
101000
102000
102000
104000
1087C0
110820
020010
040010
040020
080040
100180
200600
400FF0
ENDCHAR
STARTCHAR threequarters
ENCODING 190
SWIDTH 978 0
DWIDTH 23 0
BBX 21 16 1 0
BITMAP
7E0040
810080
010100
020200
1C0400
020400
010800
821020
7C2060
0040A0
008120
008220
010420
020FF8
040020
080020
ENDCHAR
STARTCHAR questiondown
ENCODING 191
SWIDTH 568 0
DWIDTH 14 0
BBX 10 16 2 0
BITMAP
0100
0100
0000
0000
0100
0100
0700
1800
2000
4000
8000
8000
8000
8040
6080
1F00
ENDCHAR
STARTCHAR Agrave
ENCODING 192
SWIDTH 812 0
DWIDTH 20 0
BBX 17 20 1 0
BITMAP
040000
0B8000
004000
000000
008000
014000
014000
022000
022000
041000
0C1000
080800
100400
100400
3FFE00
200200
400100
400100
800080
800080
ENDCHAR
STARTCHAR Aacute
ENCODING 193
SWIDTH 812 0
DWIDTH 20 0
BBX 17 20 1 0
BITMAP
000800
007000
018000
000000
008000
014000
014000
022000
022000
041000
0C1000
080800
100400
100400
3FFE00
200200
400100
400100
800080
800080
ENDCHAR
STARTCHAR Acircumflex
ENCODING 194
SWIDTH 812 0
DWIDTH 20 0
BBX 17 20 1 0
BITMAP
018000
036000
0C1000
000000
008000
014000
014000
022000
022000
041000
0C1000
080800
100400
100400
3FFE00
200200
400100
400100
800080
800080
ENDCHAR
STARTCHAR Atilde
ENCODING 195
SWIDTH 812 0
DWIDTH 20 0
BBX 17 20 1 0
BITMAP
071000
049000
087000
000000
008000
014000
014000
022000
022000
041000
0C1000
080800
100400
100400
3FFE00
200200
400100
400100
800080
800080
ENDCHAR
STARTCHAR Adieresis
ENCODING 196
SWIDTH 812 0
DWIDTH 20 0
BBX 17 19 1 0
BITMAP
021000
021000
000000
008000
014000
014000
022000
022000
041000
0C1000
080800
100400
100400
3FFE00
200200
400100
400100
800080
800080
ENDCHAR
STARTCHAR Aring
ENCODING 197
SWIDTH 812 0
DWIDTH 20 0
BBX 17 21 1 0
BITMAP
03C000
042000
042000
03C000
000000
008000
014000
014000
022000
022000
041000
0C1000
080800
100400
100400
3FFE00
200200
400100
400100
800080
800080
ENDCHAR
STARTCHAR AE
ENCODING 198
SWIDTH 1172 0
DWIDTH 28 0
BBX 26 16 1 0
BITMAP
003FFFC0
00480000
00480000
00880000
01080000
01080000
02080000
040FFF80
04080000
08080000
1FF80000
10080000
20080000
40080000
40080000
800FFFC0
ENDCHAR
STARTCHAR Ccedilla
ENCODING 199
SWIDTH 869 0
DWIDTH 21 0
BBX 17 21 2 -5
BITMAP
03FC00
0C0300
100080
200000
400000
800000
800000
800000
800000
800000
800000
400000
200000
100080
0C0300
03FC00
004000
00E000
001000
001000
01E000
ENDCHAR
STARTCHAR Egrave
ENCODING 200
SWIDTH 754 0
DWIDTH 18 0
BBX 14 20 3 0
BITMAP
3000
0C00
0300
0000
FFFC
8000
8000
8000
8000
8000
8000
FFF8
8000
8000
8000
8000
8000
8000
8000
FFFC
ENDCHAR
STARTCHAR Eacute
ENCODING 201
SWIDTH 754 0
DWIDTH 18 0
BBX 14 20 3 0
BITMAP
0060
0180
0600
0000
FFFC
8000
8000
8000
8000
8000
8000
FFF8
8000
8000
8000
8000
8000
8000
8000
FFFC
ENDCHAR
STARTCHAR Ecircumflex
ENCODING 202
SWIDTH 754 0
DWIDTH 18 0
BBX 14 20 3 0
BITMAP
0600
1980
2040
0000
FFFC
8000
8000
8000
8000
8000
8000
FFF8
8000
8000
8000
8000
8000
8000
8000
FFFC
ENDCHAR
STARTCHAR Edieresis
ENCODING 203
SWIDTH 754 0
DWIDTH 18 0
BBX 14 19 3 0
BITMAP
0840
0840
0000
FFFC
8000
8000
8000
8000
8000
8000
FFF8
8000
8000
8000
8000
8000
8000
8000
FFFC
ENDCHAR
STARTCHAR Igrave
ENCODING 204
SWIDTH 287 0
DWIDTH 7 0
BBX 6 20 -1 0
BITMAP
C0
30
0C
00
08
08
08
08
08
08
08
08
08
08
08
08
08
08
08
08
ENDCHAR
STARTCHAR Iacute
ENCODING 205
SWIDTH 287 0
DWIDTH 7 0
BBX 6 20 2 0
BITMAP
0C
30
C0
00
40
40
40
40
40
40
40
40
40
40
40
40
40
40
40
40
ENDCHAR
STARTCHAR Icircumflex
ENCODING 206
SWIDTH 287 0
DWIDTH 7 0
BBX 8 20 -1 0
BITMAP
18
66
C1
00
08
08
08
08
08
08
08
08
08
08
08
08
08
08
08
08
ENDCHAR
STARTCHAR Idieresis
ENCODING 207
SWIDTH 287 0
DWIDTH 7 0
BBX 6 19 1 0
BITMAP
84
84
00
20
20
20
20
20
20
20
20
20
20
20
20
20
20
20
20
ENDCHAR
STARTCHAR Eth
ENCODING 208
SWIDTH 910 0
DWIDTH 22 0
BBX 19 16 1 0
BITMAP
3FFC00
200300
200080
200040
200040
200020
200020
FFC020
200020
200020
200020
200040
200040
200080
200300
3FFC00
ENDCHAR
STARTCHAR Ntilde
ENCODING 209
SWIDTH 936 0
DWIDTH 22 0
BBX 16 20 3 0
BITMAP
0610
0990
0860
0000
8001
C001
A001
9001
8801
8401
8201
8101
8081
8041
8021
8011
8009
8005
8003
8001
ENDCHAR
STARTCHAR Ograve
ENCODING 210
SWIDTH 983 0
DWIDTH 24 0
BBX 20 20 2 0
BITMAP
020000
05C000
003000
000000
03FC00
0C0300
100080
200040
400020
800010
800010
800010
800010
800010
800010
400020
200040
100080
0C0300
03FC00
ENDCHAR
STARTCHAR Oacute
ENCODING 211
SWIDTH 983 0
DWIDTH 24 0
BBX 20 20 2 0
BITMAP
000400
003A00
00C000
000000
03FC00
0C0300
100080
200040
400020
800010
800010
800010
800010
800010
800010
400020
200040
100080
0C0300
03FC00
ENDCHAR
STARTCHAR Ocircumflex
ENCODING 212
SWIDTH 983 0
DWIDTH 24 0
BBX 20 20 2 0
BITMAP
004000
01B000
060C00
000000
03FC00
0C0300
100080
200040
400020
800010
800010
800010
800010
800010
800010
400020
200040
100080
0C0300
03FC00
ENDCHAR
STARTCHAR Otilde
ENCODING 213
SWIDTH 983 0
DWIDTH 24 0
BBX 20 20 2 0
BITMAP
038C00
024800
023800
000000
03FC00
0C0300
100080
200040
400020
800010
800010
800010
800010
800010
800010
400020
200040
100080
0C0300
03FC00
ENDCHAR
STARTCHAR Odieresis
ENCODING 214
SWIDTH 983 0
DWIDTH 24 0
BBX 20 19 2 0
BITMAP
010800
010800
000000
03FC00
0C0300
100080
200040
400020
800010
800010
800010
800010
800010
800010
400020
200040
100080
0C0300
03FC00
ENDCHAR
STARTCHAR multiply
ENCODING 215
SWIDTH 634 0
DWIDTH 15 0
BBX 10 10 3 3
BITMAP
8040
4080
2100
1200
0C00
0C00
1200
2100
4080
8040
ENDCHAR
STARTCHAR Oslash
ENCODING 216
SWIDTH 983 0
DWIDTH 24 0
BBX 20 20 2 -2
BITMAP
000040
000080
03FD00
0C0300
100280
200440
400820
801810
801010
802010
804010
808010
818010
410020
220040
140080
0C0300
0BFC00
100000
200000
ENDCHAR
STARTCHAR Ugrave
ENCODING 217
SWIDTH 891 0
DWIDTH 21 0
BBX 16 20 3 0
BITMAP
0800
1700
0080
0000
8001
8001
8001
8001
8001
8001
8001
8001
8001
8001
8001
8001
8001
4002
300C
0FF0
ENDCHAR
STARTCHAR Uacute
ENCODING 218
SWIDTH 891 0
DWIDTH 21 0
BBX 16 20 3 0
BITMAP
0030
00E0
0300
0000
8001
8001
8001
8001
8001
8001
8001
8001
8001
8001
8001
8001
8001
4002
300C
0FF0
ENDCHAR
STARTCHAR Ucircumflex
ENCODING 219
SWIDTH 891 0
DWIDTH 21 0
BBX 16 20 3 0
BITMAP
0180
0360
0C10
0000
8001
8001
8001
8001
8001
8001
8001
8001
8001
8001
8001
8001
8001
4002
300C
0FF0
ENDCHAR
STARTCHAR Udieresis
ENCODING 220
SWIDTH 891 0
DWIDTH 21 0
BBX 16 19 3 0
BITMAP
0420
0420
0000
8001
8001
8001
8001
8001
8001
8001
8001
8001
8001
8001
8001
8001
4002
300C
0FF0
ENDCHAR
STARTCHAR Yacute
ENCODING 221
SWIDTH 763 0
DWIDTH 18 0
BBX 15 20 2 0
BITMAP
0030
00C0
0300
0000
8002
4004
2008
1010
1830
0860
0440
0280
0380
0100
0100
0100
0100
0100
0100
0100
ENDCHAR
STARTCHAR Thorn
ENCODING 222
SWIDTH 787 0
DWIDTH 19 0
BBX 14 16 3 0
BITMAP
8000
8000
8000
FFE0
8010
8008
8004
8004
8004
8004
8008
8010
FFE0
8000
8000
8000
ENDCHAR
STARTCHAR germandbls
ENCODING 223
SWIDTH 863 0
DWIDTH 21 0
BBX 16 16 3 0
BITMAP
0FE0
3018
4004
8002
8002
8006
800C
87F0
800C
8002
8001
8001
8001
8002
8C04
83F8
ENDCHAR
STARTCHAR agrave
ENCODING 224
SWIDTH 888 0
DWIDTH 21 0
BBX 17 20 1 0
BITMAP
060000
01C000
006000
000000
03F800
1C0600
200100
000080
000080
000080
003F80
07C080
380080
400080
800080
800080
800080
800180
601E80
1FF080
ENDCHAR
STARTCHAR aacute
ENCODING 225
SWIDTH 888 0
DWIDTH 21 0
BBX 17 20 1 0
BITMAP
000C00
003800
00C000
000000
03F800
1C0600
200100
000080
000080
000080
003F80
07C080
380080
400080
800080
800080
800080
800180
601E80
1FF080
ENDCHAR
STARTCHAR acircumflex
ENCODING 226
SWIDTH 888 0
DWIDTH 21 0
BBX 17 20 1 0
BITMAP
00C000
03B000
060800
000000
03F800
1C0600
200100
000080
000080
000080
003F80
07C080
380080
400080
800080
800080
800080
800180
601E80
1FF080
ENDCHAR
STARTCHAR atilde
ENCODING 227
SWIDTH 888 0
DWIDTH 21 0
BBX 17 20 1 0
BITMAP
038800
02C800
043000
000000
03F800
1C0600
200100
000080
000080
000080
003F80
07C080
380080
400080
800080
800080
800080
800180
601E80
1FF080
ENDCHAR
STARTCHAR adieresis
ENCODING 228
SWIDTH 888 0
DWIDTH 21 0
BBX 17 19 1 0
BITMAP
021000
021000
000000
03F800
1C0600
200100
000080
000080
000080
003F80
07C080
380080
400080
800080
800080
800080
800180
601E80
1FF080
ENDCHAR
STARTCHAR aring
ENCODING 229
SWIDTH 888 0
DWIDTH 21 0
BBX 17 21 1 0
BITMAP
01E000
021000
021000
01E000
000000
03F800
1C0600
200100
000080
000080
000080
003F80
07C080
380080
400080
800080
800080
800080
800180
601E80
1FF080
ENDCHAR
STARTCHAR ae
ENCODING 230
SWIDTH 1551 0
DWIDTH 37 0
BBX 33 16 2 0
BITMAP
07F007F000
380C180C00
4002200200
0001400100
0001800100
0001000080
007F000080
0F81FFFF80
3001000000
4001000000
8001000000
8000800000
8001C00000
8002200100
601C180600
1FC003F800
ENDCHAR
STARTCHAR ccedilla
ENCODING 231
SWIDTH 869 0
DWIDTH 21 0
BBX 17 21 2 -5
BITMAP
03FC00
0C0300
100080
200000
400000
800000
800000
800000
800000
800000
800000
400000
200000
100080
0C0300
03FC00
004000
00E000
001000
001000
01E000
ENDCHAR
STARTCHAR egrave
ENCODING 232
SWIDTH 910 0
DWIDTH 22 0
BBX 18 20 2 0
BITMAP
060000
038000
006000
000000
03F800
0C0600
100100
200080
400080
800040
800040
FFFFC0
800000
800000
400000
400000
200000
100080
0C0300
03FC00
ENDCHAR
STARTCHAR eacute
ENCODING 233
SWIDTH 910 0
DWIDTH 22 0
BBX 18 20 2 0
BITMAP
000800
007400
008000
000000
03F800
0C0600
100100
200080
400080
800040
800040
FFFFC0
800000
800000
400000
400000
200000
100080
0C0300
03FC00
ENDCHAR
STARTCHAR ecircumflex
ENCODING 234
SWIDTH 910 0
DWIDTH 22 0
BBX 18 20 2 0
BITMAP
00C000
036000
041800
000000
03F800
0C0600
100100
200080
400080
800040
800040
FFFFC0
800000
800000
400000
400000
200000
100080
0C0300
03FC00
ENDCHAR
STARTCHAR edieresis
ENCODING 235
SWIDTH 910 0
DWIDTH 22 0
BBX 18 19 2 0
BITMAP
021000
021000
000000
03F800
0C0600
100100
200080
400080
800040
800040
FFFFC0
800000
800000
400000
400000
200000
100080
0C0300
03FC00
ENDCHAR
STARTCHAR igrave
ENCODING 236
SWIDTH 287 0
DWIDTH 7 0
BBX 6 20 -1 0
BITMAP
C0
30
0C
00
08
08
08
08
08
08
08
08
08
08
08
08
08
08
08
08
ENDCHAR
STARTCHAR iacute
ENCODING 237
SWIDTH 287 0
DWIDTH 7 0
BBX 6 20 2 0
BITMAP
0C
30
C0
00
40
40
40
40
40
40
40
40
40
40
40
40
40
40
40
40
ENDCHAR
STARTCHAR icircumflex
ENCODING 238
SWIDTH 287 0
DWIDTH 7 0
BBX 8 20 -1 0
BITMAP
18
66
C1
00
08
08
08
08
08
08
08
08
08
08
08
08
08
08
08
08
ENDCHAR
STARTCHAR idieresis
ENCODING 239
SWIDTH 287 0
DWIDTH 7 0
BBX 6 19 1 0
BITMAP
84
84
00
20
20
20
20
20
20
20
20
20
20
20
20
20
20
20
20
ENDCHAR
STARTCHAR eth
ENCODING 240
SWIDTH 910 0
DWIDTH 22 0
BBX 19 16 1 0
BITMAP
3FFC00
200300
200080
200040
200040
200020
200020
FFC020
200020
200020
200020
200040
200040
200080
200300
3FFC00
ENDCHAR
STARTCHAR ntilde
ENCODING 241
SWIDTH 933 0
DWIDTH 22 0
BBX 17 20 3 0
BITMAP
061000
092000
08E000
000000
81FC00
8E0200
B00100
C00080
800080
800080
800080
800080
800080
800080
800080
800080
800080
800080
800080
800080
ENDCHAR
STARTCHAR ograve
ENCODING 242
SWIDTH 983 0
DWIDTH 24 0
BBX 20 20 2 0
BITMAP
020000
05C000
003000
000000
03FC00
0C0300
100080
200040
400020
800010
800010
800010
800010
800010
800010
400020
200040
100080
0C0300
03FC00
ENDCHAR
STARTCHAR oacute
ENCODING 243
SWIDTH 983 0
DWIDTH 24 0
BBX 20 20 2 0
BITMAP
000400
003A00
00C000
000000
03FC00
0C0300
100080
200040
400020
800010
800010
800010
800010
800010
800010
400020
200040
100080
0C0300
03FC00
ENDCHAR
STARTCHAR ocircumflex
ENCODING 244
SWIDTH 983 0
DWIDTH 24 0
BBX 20 20 2 0
BITMAP
004000
01B000
060C00
000000
03FC00
0C0300
100080
200040
400020
800010
800010
800010
800010
800010
800010
400020
200040
100080
0C0300
03FC00
ENDCHAR
STARTCHAR otilde
ENCODING 245
SWIDTH 983 0
DWIDTH 24 0
BBX 20 20 2 0
BITMAP
038C00
024800
023800
000000
03FC00
0C0300
100080
200040
400020
800010
800010
800010
800010
800010
800010
400020
200040
100080
0C0300
03FC00
ENDCHAR
STARTCHAR odieresis
ENCODING 246
SWIDTH 983 0
DWIDTH 24 0
BBX 20 19 2 0
BITMAP
010800
010800
000000
03FC00
0C0300
100080
200040
400020
800010
800010
800010
800010
800010
800010
400020
200040
100080
0C0300
03FC00
ENDCHAR
STARTCHAR divide
ENCODING 247
SWIDTH 634 0
DWIDTH 15 0
BBX 12 9 2 3
BITMAP
0600
0600
0000
0000
FFF0
0000
0000
0600
0600
ENDCHAR
STARTCHAR oslash
ENCODING 248
SWIDTH 983 0
DWIDTH 24 0
BBX 20 20 2 -2
BITMAP
000040
000080
03FD00
0C0300
100280
200440
400820
801810
801010
802010
804010
808010
818010
410020
220040
140080
0C0300
0BFC00
100000
200000
ENDCHAR
STARTCHAR ugrave
ENCODING 249
SWIDTH 931 0
DWIDTH 22 0
BBX 16 20 3 0
BITMAP
0C00
0700
00C0
0000
8001
8001
8001
8001
8001
8001
8001
8001
8001
8001
8001
8001
8003
400D
2031
1FC1
ENDCHAR
STARTCHAR uacute
ENCODING 250
SWIDTH 931 0
DWIDTH 22 0
BBX 16 20 3 0
BITMAP
0018
0060
0180
0000
8001
8001
8001
8001
8001
8001
8001
8001
8001
8001
8001
8001
8003
400D
2031
1FC1
ENDCHAR
STARTCHAR ucircumflex
ENCODING 251
SWIDTH 931 0
DWIDTH 22 0
BBX 16 20 3 0
BITMAP
0180
06E0
0830
0000
8001
8001
8001
8001
8001
8001
8001
8001
8001
8001
8001
8001
8003
400D
2031
1FC1
ENDCHAR
STARTCHAR udieresis
ENCODING 252
SWIDTH 931 0
DWIDTH 22 0
BBX 16 19 3 0
BITMAP
0420
0420
0000
8001
8001
8001
8001
8001
8001
8001
8001
8001
8001
8001
8001
8003
400D
2031
1FC1
ENDCHAR
STARTCHAR yacute
ENCODING 253
SWIDTH 911 0
DWIDTH 22 0
BBX 17 20 2 0
BITMAP
001800
007000
018000
000000
800080
800080
800080
800080
800080
800080
800180
400280
200480
101880
0FE080
000080
000100
800200
701C00
0FF000
ENDCHAR
STARTCHAR thorn
ENCODING 254
SWIDTH 787 0
DWIDTH 19 0
BBX 14 16 3 0
BITMAP
8000
8000
8000
FFE0
8010
8008
8004
8004
8004
8004
8008
8010
FFE0
8000
8000
8000
ENDCHAR
STARTCHAR ydieresis
ENCODING 255
SWIDTH 911 0
DWIDTH 22 0
BBX 17 19 2 0
BITMAP
042000
042000
000000
800080
800080
800080
800080
800080
800080
800180
400280
200480
101880
0FE080
000080
000100
800200
701C00
0FF000
ENDCHAR
STARTCHAR Amacron
ENCODING 256
SWIDTH 812 0
DWIDTH 20 0
BBX 17 19 1 0
BITMAP
03F000
000000
000000
008000
014000
014000
022000
022000
041000
0C1000
080800
100400
100400
3FFE00
200200
400100
400100
800080
800080
ENDCHAR
STARTCHAR amacron
ENCODING 257
SWIDTH 888 0
DWIDTH 21 0
BBX 17 19 1 0
BITMAP
03F000
000000
000000
03F800
1C0600
200100
000080
000080
000080
003F80
07C080
380080
400080
800080
800080
800080
800180
601E80
1FF080
ENDCHAR
STARTCHAR Abreve
ENCODING 258
SWIDTH 812 0
DWIDTH 20 0
BBX 17 20 1 0
BITMAP
0C1000
063000
03E000
000000
008000
014000
014000
022000
022000
041000
0C1000
080800
100400
100400
3FFE00
200200
400100
400100
800080
800080
ENDCHAR
STARTCHAR abreve
ENCODING 259
SWIDTH 888 0
DWIDTH 21 0
BBX 17 20 1 0
BITMAP
040800
021800
01E000
000000
03F800
1C0600
200100
000080
000080
000080
003F80
07C080
380080
400080
800080
800080
800080
800180
601E80
1FF080
ENDCHAR
STARTCHAR Aogonek
ENCODING 260
SWIDTH 812 0
DWIDTH 20 0
BBX 19 20 1 -4
BITMAP
008000
014000
014000
022000
022000
041000
041000
080800
080800
100400
3FFE00
200200
400100
400100
800080
800080
000100
000200
000200
0001E0
ENDCHAR
STARTCHAR aogonek
ENCODING 261
SWIDTH 888 0
DWIDTH 21 0
BBX 19 20 2 -4
BITMAP
03F800
1C0600
200100
000080
000080
000080
003F80
07C080
380080
400080
800080
800080
800080
800380
601C80
1FF080
000100
000200
000200
0001E0
ENDCHAR
STARTCHAR Cacute
ENCODING 262
SWIDTH 869 0
DWIDTH 21 0
BBX 17 20 2 0
BITMAP
000C00
003800
00C000
000000
03FC00
0C0300
100080
200000
400000
800000
800000
800000
800000
800000
800000
400000
200000
100080
0C0300
03F800
ENDCHAR
STARTCHAR cacute
ENCODING 263
SWIDTH 869 0
DWIDTH 21 0
BBX 17 20 2 0
BITMAP
000C00
003800
00C000
000000
03FC00
0C0300
100080
200000
400000
800000
800000
800000
800000
800000
800000
400000
200000
100080
0C0300
03F800
ENDCHAR
STARTCHAR Ccircumflex
ENCODING 264
SWIDTH 869 0
DWIDTH 21 0
BBX 17 20 2 0
BITMAP
00C000
01B000
060800
000000
03FC00
0C0300
100080
200000
400000
800000
800000
800000
800000
800000
800000
400000
200000
100080
0C0300
03F800
ENDCHAR
STARTCHAR ccircumflex
ENCODING 265
SWIDTH 869 0
DWIDTH 21 0
BBX 17 20 2 0
BITMAP
00C000
01B000
060800
000000
03FC00
0C0300
100080
200000
400000
800000
800000
800000
800000
800000
800000
400000
200000
100080
0C0300
03F800
ENDCHAR
STARTCHAR Cdotaccent
ENCODING 266
SWIDTH 869 0
DWIDTH 21 0
BBX 17 19 2 0
BITMAP
008000
008000
000000
03FC00
0C0300
100080
200000
400000
800000
800000
800000
800000
800000
800000
400000
200000
100080
0C0300
03F800
ENDCHAR
STARTCHAR cdotaccent
ENCODING 267
SWIDTH 869 0
DWIDTH 21 0
BBX 17 19 2 0
BITMAP
008000
008000
000000
03FC00
0C0300
100080
200000
400000
800000
800000
800000
800000
800000
800000
400000
200000
100080
0C0300
03F800
ENDCHAR
STARTCHAR Ccaron
ENCODING 268
SWIDTH 869 0
DWIDTH 21 0
BBX 17 20 2 0
BITMAP
020800
05B000
00C000
000000
03FC00
0C0300
100080
200000
400000
800000
800000
800000
800000
800000
800000
400000
200000
100080
0C0300
03F800
ENDCHAR
STARTCHAR ccaron
ENCODING 269
SWIDTH 869 0
DWIDTH 21 0
BBX 17 20 2 0
BITMAP
020800
05B000
00C000
000000
03FC00
0C0300
100080
200000
400000
800000
800000
800000
800000
800000
800000
400000
200000
100080
0C0300
03F800
ENDCHAR
STARTCHAR Dcaron
ENCODING 270
SWIDTH 910 0
DWIDTH 22 0
BBX 17 20 3 0
BITMAP
20C000
198000
060000
000000
FFF000
800C00
800200
800100
800100
800080
800080
800080
800080
800080
800080
800100
800100
800200
800C00
FFF000
ENDCHAR
STARTCHAR dcaron
ENCODING 271
SWIDTH 910 0
DWIDTH 22 0
BBX 17 20 3 0
BITMAP
20C000
198000
060000
000000
FFF000
800C00
800200
800100
800100
800080
800080
800080
800080
800080
800080
800100
800100
800200
800C00
FFF000
ENDCHAR
STARTCHAR Dcroat
ENCODING 272
SWIDTH 910 0
DWIDTH 22 0
BBX 19 16 1 0
BITMAP
3FFC00
200300
200080
200040
200040
200020
200020
FFC020
200020
200020
200020
200040
200040
200080
200300
3FFC00
ENDCHAR
STARTCHAR dcroat
ENCODING 273
SWIDTH 910 0
DWIDTH 22 0
BBX 19 16 1 0
BITMAP
3FFC00
200300
200080
200040
200040
200020
200020
FFC020
200020
200020
200020
200040
200040
200080
200300
3FFC00
ENDCHAR
STARTCHAR Emacron
ENCODING 274
SWIDTH 754 0
DWIDTH 18 0
BBX 14 19 3 0
BITMAP
0FC0
0000
0000
FFFC
8000
8000
8000
8000
8000
8000
FFF8
8000
8000
8000
8000
8000
8000
8000
FFFC
ENDCHAR
STARTCHAR emacron
ENCODING 275
SWIDTH 910 0
DWIDTH 22 0
BBX 18 19 2 0
BITMAP
03F000
000000
000000
03F800
0C0600
100100
200080
400080
800040
800040
FFFFC0
800000
800000
400000
400000
200000
100080
0C0300
03FC00
ENDCHAR
STARTCHAR Ebreve
ENCODING 276
SWIDTH 754 0
DWIDTH 18 0
BBX 14 20 3 0
BITMAP
2040
1080
0F00
0000
FFFC
8000
8000
8000
8000
8000
8000
FFF8
8000
8000
8000
8000
8000
8000
8000
FFFC
ENDCHAR
STARTCHAR ebreve
ENCODING 277
SWIDTH 910 0
DWIDTH 22 0
BBX 18 20 2 0
BITMAP
041800
063000
03E000
000000
03F800
0C0600
100100
200080
400080
800040
800040
FFFFC0
800000
800000
400000
400000
200000
100080
0C0300
03FC00
ENDCHAR
STARTCHAR Edotaccent
ENCODING 278
SWIDTH 754 0
DWIDTH 18 0
BBX 14 19 3 0
BITMAP
0400
0400
0000
FFFC
8000
8000
8000
8000
8000
8000
FFF8
8000
8000
8000
8000
8000
8000
8000
FFFC
ENDCHAR
STARTCHAR edotaccent
ENCODING 279
SWIDTH 910 0
DWIDTH 22 0
BBX 18 19 2 0
BITMAP
004000
004000
000000
03F800
0C0600
100100
200080
400080
800040
800040
FFFFC0
800000
800000
400000
400000
200000
100080
0C0300
03FC00
ENDCHAR
STARTCHAR Eogonek
ENCODING 280
SWIDTH 754 0
DWIDTH 18 0
BBX 14 20 3 -4
BITMAP
FFFC
8000
8000
8000
8000
8000
8000
FFF8
8000
8000
8000
8000
8000
8000
8000
FFFC
0030
0040
0040
003C
ENDCHAR
STARTCHAR eogonek
ENCODING 281
SWIDTH 910 0
DWIDTH 22 0
BBX 18 20 2 -4
BITMAP
03F800
0C0600
100100
200080
400080
800040
800040
FFFFC0
800000
800000
C00000
400000
200000
100080
0C0100
03FE00
000400
000400
000400
0003C0
ENDCHAR
STARTCHAR Ecaron
ENCODING 282
SWIDTH 754 0
DWIDTH 18 0
BBX 14 20 3 0
BITMAP
2040
1980
0600
0000
FFFC
8000
8000
8000
8000
8000
8000
FFF8
8000
8000
8000
8000
8000
8000
8000
FFFC
ENDCHAR
STARTCHAR ecaron
ENCODING 283
SWIDTH 910 0
DWIDTH 22 0
BBX 18 20 2 0
BITMAP
041000
036800
00C000
000000
03F800
0C0600
100100
200080
400080
800040
800040
FFFFC0
800000
800000
400000
400000
200000
100080
0C0300
03FC00
ENDCHAR
STARTCHAR Gcircumflex
ENCODING 284
SWIDTH 910 0
DWIDTH 22 0
BBX 18 20 2 0
BITMAP
004000
01B000
020C00
000000
03FC00
0C0380
100040
200000
400000
800000
800000
800000
803FC0
800040
800040
400040
200040
100040
0C00C0
03FF00
ENDCHAR
STARTCHAR gcircumflex
ENCODING 285
SWIDTH 910 0
DWIDTH 22 0
BBX 18 20 2 0
BITMAP
004000
01B000
020C00
000000
03FC00
0C0380
100040
200000
400000
800000
800000
800000
803FC0
800040
800040
400040
200040
100040
0C00C0
03FF00
ENDCHAR
STARTCHAR Gbreve
ENCODING 286
SWIDTH 910 0
DWIDTH 22 0
BBX 18 20 2 0
BITMAP
020C00
031800
01F000
000000
03FC00
0C0380
100040
200000
400000
800000
800000
800000
803FC0
800040
800040
400040
200040
100040
0C00C0
03FF00
ENDCHAR
STARTCHAR gbreve
ENCODING 287
SWIDTH 910 0
DWIDTH 22 0
BBX 18 20 2 0
BITMAP
020C00
031800
01F000
000000
03FC00
0C0380
100040
200000
400000
800000
800000
800000
803FC0
800040
800040
400040
200040
100040
0C00C0
03FF00
ENDCHAR
STARTCHAR Gdotaccent
ENCODING 288
SWIDTH 910 0
DWIDTH 22 0
BBX 18 19 2 0
BITMAP
004000
004000
000000
03FC00
0C0380
100040
200000
400000
800000
800000
800000
803FC0
800040
800040
400040
200040
100040
0C00C0
03FF00
ENDCHAR
STARTCHAR gdotaccent
ENCODING 289
SWIDTH 910 0
DWIDTH 22 0
BBX 18 19 2 0
BITMAP
004000
004000
000000
03FC00
0C0380
100040
200000
400000
800000
800000
800000
803FC0
800040
800040
400040
200040
100040
0C00C0
03FF00
ENDCHAR
STARTCHAR Gcommaaccent
ENCODING 290
SWIDTH 910 0
DWIDTH 22 0
BBX 18 21 2 -5
BITMAP
03FC00
0C0380
100040
200000
400000
800000
800000
800000
803FC0
800040
800040
400040
200040
100040
0C00C0
03FF00
000000
000000
004000
004000
008000
ENDCHAR
STARTCHAR gcommaaccent
ENCODING 291
SWIDTH 910 0
DWIDTH 22 0
BBX 18 21 2 -5
BITMAP
03FC00
0C0380
100040
200000
400000
800000
800000
800000
803FC0
800040
800040
400040
200040
100040
0C00C0
03FF00
000000
000000
004000
004000
008000
ENDCHAR
STARTCHAR Hcircumflex
ENCODING 292
SWIDTH 949 0
DWIDTH 23 0
BBX 17 20 3 0
BITMAP
018000
066000
081000
000000
800080
800080
800080
800080
800080
800080
800080
FFFF80
800080
800080
800080
800080
800080
800080
800080
800080
ENDCHAR
STARTCHAR hcircumflex
ENCODING 293
SWIDTH 949 0
DWIDTH 23 0
BBX 17 20 3 0
BITMAP
018000
066000
081000
000000
800080
800080
800080
800080
800080
800080
800080
FFFF80
800080
800080
800080
800080
800080
800080
800080
800080
ENDCHAR
STARTCHAR Hbar
ENCODING 294
SWIDTH 949 0
DWIDTH 23 0
BBX 21 16 1 0
BITMAP
200020
200020
200020
FFFFF8
200020
200020
200020
3FFFE0
200020
200020
200020
200020
200020
200020
200020
200020
ENDCHAR
STARTCHAR hbar
ENCODING 295
SWIDTH 949 0
DWIDTH 23 0
BBX 21 16 1 0
BITMAP
200020
200020
200020
FFFFF8
200020
200020
200020
3FFFE0
200020
200020
200020
200020
200020
200020
200020
200020
ENDCHAR
STARTCHAR Itilde
ENCODING 296
SWIDTH 287 0
DWIDTH 7 0
BBX 8 20 -1 0
BITMAP
71
99
86
00
08
08
08
08
08
08
08
08
08
08
08
08
08
08
08
08
ENDCHAR
STARTCHAR itilde
ENCODING 297
SWIDTH 287 0
DWIDTH 7 0
BBX 8 20 -1 0
BITMAP
71
D9
86
00
08
08
08
08
08
08
08
08
08
08
08
08
08
08
08
08
ENDCHAR
STARTCHAR Imacron
ENCODING 298
SWIDTH 287 0
DWIDTH 7 0
BBX 6 19 0 0
BITMAP
FC
00
00
10
10
10
10
10
10
10
10
10
10
10
10
10
10
10
10
ENDCHAR
STARTCHAR imacron
ENCODING 299
SWIDTH 287 0
DWIDTH 7 0
BBX 6 19 0 0
BITMAP
FC
00
00
10
10
10
10
10
10
10
10
10
10
10
10
10
10
10
10
ENDCHAR
STARTCHAR Ibreve
ENCODING 300
SWIDTH 287 0
DWIDTH 7 0
BBX 8 20 -1 0
BITMAP
81
42
3C
00
08
08
08
08
08
08
08
08
08
08
08
08
08
08
08
08
ENDCHAR
STARTCHAR ibreve
ENCODING 301
SWIDTH 287 0
DWIDTH 7 0
BBX 8 20 -1 0
BITMAP
81
42
3C
00
08
08
08
08
08
08
08
08
08
08
08
08
08
08
08
08
ENDCHAR
STARTCHAR Iogonek
ENCODING 302
SWIDTH 287 0
DWIDTH 7 0
BBX 5 20 1 -4
BITMAP
20
20
20
20
20
20
20
20
20
20
20
20
20
20
20
20
40
80
80
78
ENDCHAR
STARTCHAR iogonek
ENCODING 303
SWIDTH 287 0
DWIDTH 7 0
BBX 5 20 1 -4
BITMAP
20
20
20
20
20
20
20
20
20
20
20
20
20
20
20
20
40
80
80
78
ENDCHAR
STARTCHAR Idotaccent
ENCODING 304
SWIDTH 287 0
DWIDTH 7 0
BBX 1 19 3 0
BITMAP
80
80
00
80
80
80
80
80
80
80
80
80
80
80
80
80
80
80
80
ENDCHAR
STARTCHAR dotlessi
ENCODING 305
SWIDTH 287 0
DWIDTH 7 0
BBX 1 16 3 0
BITMAP
80
80
80
80
80
80
80
80
80
80
80
80
80
80
80
80
ENDCHAR
STARTCHAR IJ
ENCODING 306
SWIDTH 877 0
DWIDTH 21 0
BBX 16 16 3 0
BITMAP
8001
8001
8001
8001
8001
8001
8001
8001
8001
8001
8001
8001
8001
8002
8C0C
87F8
ENDCHAR
STARTCHAR ij
ENCODING 307
SWIDTH 877 0
DWIDTH 21 0
BBX 16 16 3 0
BITMAP
8001
8001
8001
8001
8001
8001
8001
8001
8001
8001
8001
8001
8001
8002
8C0C
87F8
ENDCHAR
STARTCHAR Jcircumflex
ENCODING 308
SWIDTH 590 0
DWIDTH 14 0
BBX 15 20 0 0
BITMAP
0010
006C
0182
0000
0010
0010
0010
0010
0010
0010
0010
0010
0010
0010
0010
0010
0010
0020
C040
3F80
ENDCHAR
STARTCHAR jcircumflex
ENCODING 309
SWIDTH 590 0
DWIDTH 14 0
BBX 15 20 0 0
BITMAP
0010
006C
0182
0000
0010
0010
0010
0010
0010
0010
0010
0010
0010
0010
0010
0010
0010
0020
C040
3F80
ENDCHAR
STARTCHAR Kcommaaccent
ENCODING 310
SWIDTH 806 0
DWIDTH 19 0
BBX 15 21 3 -5
BITMAP
800E
8010
8060
8080
8300
8C00
9800
E000
B000
8800
8600
8180
80C0
8030
8018
8006
0000
0000
0400
0400
0400
ENDCHAR
STARTCHAR kcommaaccent
ENCODING 311
SWIDTH 867 0
DWIDTH 21 0
BBX 16 21 3 -5
BITMAP
8002
8002
8004
8008
8018
8020
80C0
FF00
80E0
8010
8008
8004
8002
8002
8001
8001
0000
0000
0200
0200
0200
ENDCHAR
STARTCHAR kgreenlandic
ENCODING 312
SWIDTH 867 0
DWIDTH 21 0
BBX 16 16 3 0
BITMAP
8002
8002
8004
8008
8018
8020
80C0
FF00
80E0
8010
8008
8004
8002
8002
8001
8001
ENDCHAR
STARTCHAR Lacute
ENCODING 313
SWIDTH 701 0
DWIDTH 17 0
BBX 14 20 2 0
BITMAP
0C00
3000
C000
0000
4000
4000
4000
4000
4000
4000
4000
4000
4000
4000
4000
4000
4000
4000
4000
7FFC
ENDCHAR
STARTCHAR lacute
ENCODING 314
SWIDTH 709 0
DWIDTH 17 0
BBX 15 20 2 0
BITMAP
0C00
3000
C000
0000
4000
4000
4000
4000
4000
4000
4000
4000
4000
4000
4000
4000
4000
4000
3000
0FFE
ENDCHAR
STARTCHAR Lcommaaccent
ENCODING 315
SWIDTH 701 0
DWIDTH 17 0
BBX 13 21 3 -5
BITMAP
8000
8000
8000
8000
8000
8000
8000
8000
8000
8000
8000
8000
8000
8000
8000
FFF8
0000
0000
0400
0400
0400
ENDCHAR
STARTCHAR lcommaaccent
ENCODING 316
SWIDTH 709 0
DWIDTH 17 0
BBX 14 21 3 -5
BITMAP
8000
8000
8000
8000
8000
8000
8000
8000
8000
8000
8000
8000
8000
8000
6000
1FFC
0000
0000
0200
0400
0400
ENDCHAR
STARTCHAR Lcaron
ENCODING 317
SWIDTH 701 0
DWIDTH 17 0
BBX 13 16 3 0
BITMAP
80C0
8080
8080
8080
8000
8000
8000
8000
8000
8000
8000
8000
8000
8000
8000
FFF8
ENDCHAR
STARTCHAR lcaron
ENCODING 318
SWIDTH 709 0
DWIDTH 17 0
BBX 14 16 3 0
BITMAP
80C0
8080
8080
8080
8000
8000
8000
8000
8000
8000
8000
8000
8000
8000
6000
1FFC
ENDCHAR
STARTCHAR Ldot
ENCODING 319
SWIDTH 701 0
DWIDTH 17 0
BBX 13 16 3 0
BITMAP
8000
8000
8000
8000
8000
8000
80C0
80C0
80C0
8000
8000
8000
8000
8000
8000
FFF8
ENDCHAR
STARTCHAR ldotaccent
ENCODING 320
SWIDTH 709 0
DWIDTH 17 0
BBX 14 16 3 0
BITMAP
8000
8000
8000
8000
8000
8000
80C0
80C0
80C0
8000
8000
8000
8000
8000
6000
1FFC
ENDCHAR
STARTCHAR Lslash
ENCODING 321
SWIDTH 701 0
DWIDTH 17 0
BBX 16 16 0 0
BITMAP
1000
1000
1000
1000
1000
1180
1700
1800
3000
D000
1000
1000
1000
1000
1000
1FFF
ENDCHAR
STARTCHAR lslash
ENCODING 322
SWIDTH 709 0
DWIDTH 17 0
BBX 17 16 0 0
BITMAP
100000
100000
100000
100000
100000
118000
170000
180000
300000
D00000
100000
100000
100000
180000
0C0000
03FF80
ENDCHAR
STARTCHAR Nacute
ENCODING 323
SWIDTH 936 0
DWIDTH 22 0
BBX 16 20 3 0
BITMAP
0018
0060
0180
0000
8001
C001
A001
9001
8801
8401
8201
8101
8081
8041
8021
8011
8009
8005
8003
8001
ENDCHAR
STARTCHAR nacute
ENCODING 324
SWIDTH 933 0
DWIDTH 22 0
BBX 17 20 3 0
BITMAP
001000
00E800
010000
000000
81FC00
8E0200
B00100
C00080
800080
800080
800080
800080
800080
800080
800080
800080
800080
800080
800080
800080
ENDCHAR
STARTCHAR Ncommaaccent
ENCODING 325
SWIDTH 936 0
DWIDTH 22 0
BBX 16 21 3 -5
BITMAP
8001
C001
A001
9001
8801
8401
8201
8101
8081
8041
8021
8011
8009
8005
8003
8001
0000
0000
0100
0100
0100
ENDCHAR
STARTCHAR ncommaaccent
ENCODING 326
SWIDTH 933 0
DWIDTH 22 0
BBX 17 21 3 -5
BITMAP
81FC00
8E0200
B00100
C00080
800080
800080
800080
800080
800080
800080
800080
800080
800080
800080
800080
800080
000000
000000
010000
010000
010000
ENDCHAR
STARTCHAR Ncaron
ENCODING 327
SWIDTH 936 0
DWIDTH 22 0
BBX 16 20 3 0
BITMAP
0830
0660
0180
0000
8001
C001
A001
9001
8801
8401
8201
8101
8081
8041
8021
8011
8009
8005
8003
8001
ENDCHAR
STARTCHAR ncaron
ENCODING 328
SWIDTH 933 0
DWIDTH 22 0
BBX 17 20 3 0
BITMAP
082000
06D000
018000
000000
81FC00
8E0200
B00100
C00080
800080
800080
800080
800080
800080
800080
800080
800080
800080
800080
800080
800080
ENDCHAR
STARTCHAR napostrophe
ENCODING 329
SWIDTH 1025 0
DWIDTH 25 0
BBX 22 16 0 0
BITMAP
440FE0
447018
45C008
870004
040004
040004
040004
040004
040004
040004
040004
040004
040004
040004
040004
040004
ENDCHAR
STARTCHAR Eng
ENCODING 330
SWIDTH 936 0
DWIDTH 22 0
BBX 16 16 3 0
BITMAP
C001
E001
9001
8801
8601
8301
8081
8061
8031
8009
8007
8003
8001
8002
8204
81F8
ENDCHAR
STARTCHAR eng
ENCODING 331
SWIDTH 933 0
DWIDTH 22 0
BBX 17 16 3 0
BITMAP
81FC00
8E0200
B00100
C00080
800080
800080
800080
800080
800080
800080
800080
800080
800080
800100
810200
80FC00
ENDCHAR
STARTCHAR Omacron
ENCODING 332
SWIDTH 983 0
DWIDTH 24 0
BBX 20 19 2 0
BITMAP
03F800
000000
000000
03FC00
0C0300
100080
200040
400020
800010
800010
800010
800010
800010
800010
400020
200040
100080
0C0300
03FC00
ENDCHAR
STARTCHAR omacron
ENCODING 333
SWIDTH 983 0
DWIDTH 24 0
BBX 20 19 2 0
BITMAP
03F800
000000
000000
03FC00
0C0300
100080
200040
400020
800010
800010
800010
800010
800010
800010
400020
200040
100080
0C0300
03FC00
ENDCHAR
STARTCHAR Obreve
ENCODING 334
SWIDTH 983 0
DWIDTH 24 0
BBX 20 20 2 0
BITMAP
060C00
031800
01F000
000000
03FC00
0C0300
100080
200040
400020
800010
800010
800010
800010
800010
800010
400020
200040
100080
0C0300
03FC00
ENDCHAR
STARTCHAR obreve
ENCODING 335
SWIDTH 983 0
DWIDTH 24 0
BBX 20 20 2 0
BITMAP
060C00
031800
01F000
000000
03FC00
0C0300
100080
200040
400020
800010
800010
800010
800010
800010
800010
400020
200040
100080
0C0300
03FC00
ENDCHAR
STARTCHAR Ohungarumlaut
ENCODING 336
SWIDTH 983 0
DWIDTH 24 0
BBX 20 20 2 0
BITMAP
002200
00CC00
011000
000000
03FC00
0C0300
100080
200040
400020
800010
800010
800010
800010
800010
800010
400020
200040
100080
0C0300
03FC00
ENDCHAR
STARTCHAR ohungarumlaut
ENCODING 337
SWIDTH 983 0
DWIDTH 24 0
BBX 20 20 2 0
BITMAP
002200
00CC00
011000
000000
03FC00
0C0300
100080
200040
400020
800010
800010
800010
800010
800010
800010
400020
200040
100080
0C0300
03FC00
ENDCHAR
STARTCHAR OE
ENCODING 338
SWIDTH 1338 0
DWIDTH 32 0
BBX 29 16 2 0
BITMAP
03FFFFF8
0C010000
30010000
40010000
40010000
80010000
80010000
8001FFF0
80010000
80010000
80010000
40010000
40010000
30010000
1C010000
03FFFFF8
ENDCHAR
STARTCHAR oe
ENCODING 339
SWIDTH 1688 0
DWIDTH 41 0
BBX 37 16 2 0
BITMAP
03FC007F00
0C038180C0
1000420020
2000240010
4000280010
8000100008
8000100008
80001FFFF8
8000100000
8000100000
8000180000
4000280000
2000440000
1000820010
0C03018060
03FC007F80
ENDCHAR
STARTCHAR Racute
ENCODING 340
SWIDTH 833 0
DWIDTH 20 0
BBX 15 20 3 0
BITMAP
0060
0380
0600
0000
FFE0
8018
800C
8004
8004
8004
8004
8018
FFE0
8020
8020
8010
8008
8004
8004
8002
ENDCHAR
STARTCHAR racute
ENCODING 341
SWIDTH 609 0
DWIDTH 15 0
BBX 12 20 3 0
BITMAP
0080
0740
0800
0000
83F0
8C00
B000
C000
8000
8000
8000
8000
8000
8000
8000
8000
8000
8000
8000
8000
ENDCHAR
STARTCHAR Rcommaaccent
ENCODING 342
SWIDTH 833 0
DWIDTH 20 0
BBX 15 21 3 -5
BITMAP
FFE0
8018
800C
8004
8004
8004
8004
8018
FFE0
8020
8020
8010
8008
8004
8004
8002
0000
0000
0200
0400
0400
ENDCHAR
STARTCHAR rcommaaccent
ENCODING 343
SWIDTH 609 0
DWIDTH 15 0
BBX 12 21 3 -5
BITMAP
83F0
8C00
B000
C000
8000
8000
8000
8000
8000
8000
8000
8000
8000
8000
8000
8000
0000
0000
8000
8000
8000
ENDCHAR
STARTCHAR Rcaron
ENCODING 344
SWIDTH 833 0
DWIDTH 20 0
BBX 15 20 3 0
BITMAP
20C0
1B80
0600
0000
FFE0
8018
800C
8004
8004
8004
8004
8018
FFE0
8020
8020
8010
8008
8004
8004
8002
ENDCHAR
STARTCHAR rcaron
ENCODING 345
SWIDTH 609 0
DWIDTH 15 0
BBX 12 20 3 0
BITMAP
4180
3600
0C00
0000
83F0
8C00
B000
C000
8000
8000
8000
8000
8000
8000
8000
8000
8000
8000
8000
8000
ENDCHAR
STARTCHAR Sacute
ENCODING 346
SWIDTH 787 0
DWIDTH 19 0
BBX 15 20 2 0
BITMAP
0030
00C0
0300
0000
1FE0
6018
8004
8000
8000
4000
3800
0780
0070
000C
0002
0002
0002
8004
6018
1FE0
ENDCHAR
STARTCHAR sacute
ENCODING 347
SWIDTH 787 0
DWIDTH 19 0
BBX 15 20 2 0
BITMAP
0030
00C0
0300
0000
1FE0
6018
8004
8000
8000
4000
3800
0780
0070
000C
0002
0002
0002
8004
6018
1FE0
ENDCHAR
STARTCHAR Scircumflex
ENCODING 348
SWIDTH 787 0
DWIDTH 19 0
BBX 15 20 2 0
BITMAP
0300
0CC0
1020
0000
1FE0
6018
8004
8000
8000
4000
3800
0780
0070
000C
0002
0002
0002
8004
6018
1FE0
ENDCHAR
STARTCHAR scircumflex
ENCODING 349
SWIDTH 787 0
DWIDTH 19 0
BBX 15 20 2 0
BITMAP
0300
0CC0
1020
0000
1FE0
6018
8004
8000
8000
4000
3800
0780
0070
000C
0002
0002
0002
8004
6018
1FE0
ENDCHAR
STARTCHAR Scedilla
ENCODING 350
SWIDTH 787 0
DWIDTH 19 0
BBX 15 21 2 -5
BITMAP
1FE0
6018
8004
8000
8000
4000
3800
0780
0070
000C
0002
0002
0002
8002
600C
1FE0
0100
0380
0040
0040
0780
ENDCHAR
STARTCHAR scedilla
ENCODING 351
SWIDTH 787 0
DWIDTH 19 0
BBX 15 21 2 -5
BITMAP
1FE0
6018
8004
8000
8000
4000
3800
0780
0070
000C
0002
0002
0002
8002
600C
1FE0
0100
0380
0040
0040
0780
ENDCHAR
STARTCHAR Scaron
ENCODING 352
SWIDTH 787 0
DWIDTH 19 0
BBX 15 20 2 0
BITMAP
1020
0CC0
0300
0000
1FE0
6018
8004
8000
8000
4000
3800
0780
0070
000C
0002
0002
0002
8004
6018
1FE0
ENDCHAR
STARTCHAR scaron
ENCODING 353
SWIDTH 787 0
DWIDTH 19 0
BBX 15 20 2 0
BITMAP
1020
0CC0
0300
0000
1FE0
6018
8004
8000
8000
4000
3800
0780
0070
000C
0002
0002
0002
8004
6018
1FE0
ENDCHAR
STARTCHAR Tcommaaccent
ENCODING 354
SWIDTH 708 0
DWIDTH 17 0
BBX 15 21 1 -5
BITMAP
FFFE
0100
0100
0100
0100
0100
0100
0100
0100
0100
0100
0100
0100
0100
0100
0100
0000
0000
0100
0100
0100
ENDCHAR
STARTCHAR tcommaaccent
ENCODING 355
SWIDTH 708 0
DWIDTH 17 0
BBX 15 21 1 -5
BITMAP
FFFE
0100
0100
0100
0100
0100
0100
0100
0100
0100
0100
0100
0100
0100
0100
0100
0000
0000
0100
0100
0100
ENDCHAR
STARTCHAR Tcaron
ENCODING 356
SWIDTH 708 0
DWIDTH 17 0
BBX 15 20 1 0
BITMAP
1820
0EC0
0300
0000
FFFE
0100
0100
0100
0100
0100
0100
0100
0100
0100
0100
0100
0100
0100
0100
0100
ENDCHAR
STARTCHAR tcaron
ENCODING 357
SWIDTH 708 0
DWIDTH 17 0
BBX 15 20 1 0
BITMAP
1820
0EC0
0300
0000
FFFE
0100
0100
0100
0100
0100
0100
0100
0100
0100
0100
0100
0100
0100
0100
0100
ENDCHAR
STARTCHAR Tbar
ENCODING 358
SWIDTH 708 0
DWIDTH 17 0
BBX 15 16 1 0
BITMAP
FFFE
0100
0100
0100
0100
0100
7FFC
0100
0100
0100
0100
0100
0100
0100
0100
0100
ENDCHAR
STARTCHAR tbar
ENCODING 359
SWIDTH 708 0
DWIDTH 17 0
BBX 15 16 1 0
BITMAP
FFFE
0100
0100
0100
0100
0100
7FFC
0100
0100
0100
0100
0100
0100
0100
0100
0100
ENDCHAR
STARTCHAR Utilde
ENCODING 360
SWIDTH 891 0
DWIDTH 21 0
BBX 16 20 3 0
BITMAP
0E20
0B20
10C0
0000
8001
8001
8001
8001
8001
8001
8001
8001
8001
8001
8001
8001
8001
4002
300C
0FF0
ENDCHAR
STARTCHAR utilde
ENCODING 361
SWIDTH 931 0
DWIDTH 22 0
BBX 16 20 3 0
BITMAP
0610
09B0
0860
0000
8001
8001
8001
8001
8001
8001
8001
8001
8001
8001
8001
8001
8003
400D
2031
1FC1
ENDCHAR
STARTCHAR Umacron
ENCODING 362
SWIDTH 891 0
DWIDTH 21 0
BBX 16 19 3 0
BITMAP
07E0
0000
0000
8001
8001
8001
8001
8001
8001
8001
8001
8001
8001
8001
8001
8001
4002
300C
0FF0
ENDCHAR
STARTCHAR umacron
ENCODING 363
SWIDTH 931 0
DWIDTH 22 0
BBX 16 19 3 0
BITMAP
07E0
0000
0000
8001
8001
8001
8001
8001
8001
8001
8001
8001
8001
8001
8001
8003
400D
2031
1FC1
ENDCHAR
STARTCHAR Ubreve
ENCODING 364
SWIDTH 891 0
DWIDTH 21 0
BBX 16 20 3 0
BITMAP
0C10
0630
03E0
0000
8001
8001
8001
8001
8001
8001
8001
8001
8001
8001
8001
8001
8001
4002
300C
0FF0
ENDCHAR
STARTCHAR ubreve
ENCODING 365
SWIDTH 931 0
DWIDTH 22 0
BBX 16 20 3 0
BITMAP
0810
0C20
03C0
0000
8001
8001
8001
8001
8001
8001
8001
8001
8001
8001
8001
8001
8003
400D
2031
1FC1
ENDCHAR
STARTCHAR Uring
ENCODING 366
SWIDTH 891 0
DWIDTH 21 0
BBX 16 21 3 0
BITMAP
0780
0840
0840
0780
0000
8001
8001
8001
8001
8001
8001
8001
8001
8001
8001
8001
8001
8001
4002
300C
0FF0
ENDCHAR
STARTCHAR uring
ENCODING 367
SWIDTH 931 0
DWIDTH 22 0
BBX 16 21 3 0
BITMAP
03C0
0420
0420
03C0
0000
8001
8001
8001
8001
8001
8001
8001
8001
8001
8001
8001
8001
8003
400D
2031
1FC1
ENDCHAR
STARTCHAR Uhungarumlaut
ENCODING 368
SWIDTH 891 0
DWIDTH 21 0
BBX 16 20 3 0
BITMAP
0110
0660
0880
0000
8001
8001
8001
8001
8001
8001
8001
8001
8001
8001
8001
8001
8001
4002
300C
0FF0
ENDCHAR
STARTCHAR uhungarumlaut
ENCODING 369
SWIDTH 931 0
DWIDTH 22 0
BBX 16 20 3 0
BITMAP
0088
0330
0440
0000
8001
8001
8001
8001
8001
8001
8001
8001
8001
8001
8001
8001
8003
400D
2031
1FC1
ENDCHAR
STARTCHAR Uogonek
ENCODING 370
SWIDTH 891 0
DWIDTH 21 0
BBX 16 20 3 -4
BITMAP
8001
8001
8001
8001
8001
8001
8001
8001
8001
8001
8001
8001
8001
4002
300C
0FF0
0100
0200
0200
01E0
ENDCHAR
STARTCHAR uogonek
ENCODING 371
SWIDTH 931 0
DWIDTH 22 0
BBX 18 20 3 -4
BITMAP
800100
800100
800100
800100
800100
800100
800100
800100
800100
800100
800100
800100
800300
400D00
203100
1FC100
000200
000400
000400
0003C0
ENDCHAR
STARTCHAR Wcircumflex
ENCODING 372
SWIDTH 1266 0
DWIDTH 30 0
BBX 29 20 1 0
BITMAP
00060000
001B8000
0020C000
00000000
80020008
C0050018
40050010
400D8010
20088020
20088020
10104040
10104040
182020C0
08202080
0C603180
04401100
04401100
02800A00
02800A00
01000400
ENDCHAR
STARTCHAR wcircumflex
ENCODING 373
SWIDTH 1266 0
DWIDTH 30 0
BBX 29 20 1 0
BITMAP
00060000
001B8000
0020C000
00000000
80020008
C0050018
40050010
400D8010
20088020
20088020
10104040
10104040
182020C0
08202080
0C603180
04401100
04401100
02800A00
02800A00
01000400
ENDCHAR
STARTCHAR Ycircumflex
ENCODING 374
SWIDTH 763 0
DWIDTH 18 0
BBX 15 20 2 0
BITMAP
0300
0DC0
1060
0000
8002
4004
2008
1010
1830
0860
0440
0280
0380
0100
0100
0100
0100
0100
0100
0100
ENDCHAR
STARTCHAR ycircumflex
ENCODING 375
SWIDTH 911 0
DWIDTH 22 0
BBX 17 20 2 0
BITMAP
018000
036000
0C1000
000000
800080
800080
800080
800080
800080
800080
800180
400280
200480
101880
0FE080
000080
000100
800200
701C00
0FF000
ENDCHAR
STARTCHAR Ydieresis
ENCODING 376
SWIDTH 763 0
DWIDTH 18 0
BBX 15 19 2 0
BITMAP
0420
0420
0000
8002
4004
2008
1010
1830
0860
0440
0280
0380
0100
0100
0100
0100
0100
0100
0100
ENDCHAR
STARTCHAR Zacute
ENCODING 377
SWIDTH 728 0
DWIDTH 17 0
BBX 14 20 2 0
BITMAP
0020
01D0
0200
0000
FFFC
0008
0010
0020
0060
00C0
0180
0100
0200
0400
0800
1000
3000
6000
4000
FFFC
ENDCHAR
STARTCHAR zacute
ENCODING 378
SWIDTH 728 0
DWIDTH 17 0
BBX 14 20 2 0
BITMAP
0020
01D0
0200
0000
FFFC
0008
0010
0020
0060
00C0
0180
0100
0200
0400
0800
1000
3000
6000
4000
FFFC
ENDCHAR
STARTCHAR Zdotaccent
ENCODING 379
SWIDTH 728 0
DWIDTH 17 0
BBX 14 19 2 0
BITMAP
0200
0200
0000
FFFC
0008
0010
0020
0060
00C0
0180
0100
0200
0400
0800
1000
3000
6000
4000
FFFC
ENDCHAR
STARTCHAR zdotaccent
ENCODING 380
SWIDTH 728 0
DWIDTH 17 0
BBX 14 19 2 0
BITMAP
0200
0200
0000
FFFC
0008
0010
0020
0060
00C0
0180
0100
0200
0400
0800
1000
3000
6000
4000
FFFC
ENDCHAR
STARTCHAR Zcaron
ENCODING 381
SWIDTH 728 0
DWIDTH 17 0
BBX 14 20 2 0
BITMAP
1040
0DA0
0300
0000
FFFC
0008
0010
0020
0060
00C0
0180
0100
0200
0400
0800
1000
3000
6000
4000
FFFC
ENDCHAR
STARTCHAR zcaron
ENCODING 382
SWIDTH 728 0
DWIDTH 17 0
BBX 14 20 2 0
BITMAP
1040
0DA0
0300
0000
FFFC
0008
0010
0020
0060
00C0
0180
0100
0200
0400
0800
1000
3000
6000
4000
FFFC
ENDCHAR
STARTCHAR florin
ENCODING 402
SWIDTH 835 0
DWIDTH 20 0
BBX 19 17 1 -1
BITMAP
0007C0
000820
001000
001000
002000
002000
03FE00
004000
004000
004000
008000
008000
008000
010000
010000
820000
7C0000
ENDCHAR
STARTCHAR AEacute
ENCODING 508
SWIDTH 1172 0
DWIDTH 28 0
BBX 26 20 1 0
BITMAP
00000800
00007000
00018000
00000000
003FFFC0
00480000
00480000
00880000
01080000
01080000
02080000
040FFF80
04080000
08080000
1FF80000
10080000
20080000
40080000
40080000
800FFFC0
ENDCHAR
STARTCHAR aeacute
ENCODING 509
SWIDTH 1551 0
DWIDTH 37 0
BBX 33 20 2 0
BITMAP
0000080000
0000740000
0000800000
0000000000
07F007F000
380C180C00
4002200200
0001400100
0001800100
0001000080
007F000080
0F81FFFF80
3001000000
4001000000
8001000000
8000800000
8001C00000
8002200100
601C180600
1FC003F800
ENDCHAR
STARTCHAR Oslashacute
ENCODING 510
SWIDTH 983 0
DWIDTH 24 0
BBX 20 22 2 -2
BITMAP
000400
003A00
004040
000080
03FD00
0C0300
100280
200440
400820
801810
801010
802010
804010
808010
818010
410020
220040
140080
0C0300
0BFC00
100000
200000
ENDCHAR
STARTCHAR oslashacute
ENCODING 511
SWIDTH 983 0
DWIDTH 24 0
BBX 20 22 2 -2
BITMAP
000400
003A00
004040
000080
03FD00
0C0300
100280
200440
400820
801810
801010
802010
804010
808010
818010
410020
220040
140080
0C0300
0BFC00
100000
200000
ENDCHAR
STARTCHAR dotlessj
ENCODING 567
SWIDTH 590 0
DWIDTH 14 0
BBX 12 16 0 0
BITMAP
0010
0010
0010
0010
0010
0010
0010
0010
0010
0010
0010
0010
0010
0020
C040
3F80
ENDCHAR
STARTCHAR circumflex
ENCODING 710
SWIDTH 527 0
DWIDTH 13 0
BBX 8 3 2 13
BITMAP
18
66
81
ENDCHAR
STARTCHAR caron
ENCODING 711
SWIDTH 527 0
DWIDTH 13 0
BBX 8 3 2 13
BITMAP
81
66
18
ENDCHAR
STARTCHAR breve
ENCODING 728
SWIDTH 527 0
DWIDTH 13 0
BBX 8 3 2 13
BITMAP
81
42
3C
ENDCHAR
STARTCHAR dotaccent
ENCODING 729
SWIDTH 527 0
DWIDTH 13 0
BBX 1 2 5 13
BITMAP
80
80
ENDCHAR
STARTCHAR ring
ENCODING 730
SWIDTH 527 0
DWIDTH 13 0
BBX 6 4 3 13
BITMAP
78
84
84
78
ENDCHAR
STARTCHAR ogonek
ENCODING 731
SWIDTH 527 0
DWIDTH 13 0
BBX 5 4 4 -4
BITMAP
60
80
80
78
ENDCHAR
STARTCHAR tilde
ENCODING 732
SWIDTH 527 0
DWIDTH 13 0
BBX 8 3 2 13
BITMAP
61
99
86
ENDCHAR
STARTCHAR hungarumlaut
ENCODING 733
SWIDTH 527 0
DWIDTH 13 0
BBX 8 3 3 13
BITMAP
11
66
88
ENDCHAR
STARTCHAR commaaccent
ENCODING 806
SWIDTH 527 0
DWIDTH 13 0
BBX 1 3 5 -5
BITMAP
80
80
80
ENDCHAR
STARTCHAR mu
ENCODING 956
SWIDTH 705 0
DWIDTH 17 0
BBX 14 16 1 -5
BITMAP
1004
1004
300C
2008
2008
2008
2008
2018
6030
50C8
4F08
4000
4000
8000
8000
8000
ENDCHAR
STARTCHAR Wgrave
ENCODING 7808
SWIDTH 1266 0
DWIDTH 30 0
BBX 29 20 1 0
BITMAP
00300000
000C0000
00030000
00000000
80020008
C0050018
40050010
400D8010
20088020
20088020
10104040
10104040
182020C0
08202080
0C603180
04401100
04401100
02800A00
02800A00
01000400
ENDCHAR
STARTCHAR wgrave
ENCODING 7809
SWIDTH 1266 0
DWIDTH 30 0
BBX 29 20 1 0
BITMAP
00300000
000C0000
00030000
00000000
80020008
C0050018
40050010
400D8010
20088020
20088020
10104040
10104040
182020C0
08202080
0C603180
04401100
04401100
02800A00
02800A00
01000400
ENDCHAR
STARTCHAR Wacute
ENCODING 7810
SWIDTH 1266 0
DWIDTH 30 0
BBX 29 20 1 0
BITMAP
00006000
00018000
00060000
00000000
80020008
C0050018
40050010
400D8010
20088020
20088020
10104040
10104040
182020C0
08202080
0C603180
04401100
04401100
02800A00
02800A00
01000400
ENDCHAR
STARTCHAR wacute
ENCODING 7811
SWIDTH 1266 0
DWIDTH 30 0
BBX 29 20 1 0
BITMAP
00006000
00018000
00060000
00000000
80020008
C0050018
40050010
400D8010
20088020
20088020
10104040
10104040
182020C0
08202080
0C603180
04401100
04401100
02800A00
02800A00
01000400
ENDCHAR
STARTCHAR Wdieresis
ENCODING 7812
SWIDTH 1266 0
DWIDTH 30 0
BBX 29 19 1 0
BITMAP
00108000
00108000
00000000
80020008
C0050018
40050010
400D8010
20088020
20088020
10104040
10104040
182020C0
08202080
0C603180
04401100
04401100
02800A00
02800A00
01000400
ENDCHAR
STARTCHAR wdieresis
ENCODING 7813
SWIDTH 1266 0
DWIDTH 30 0
BBX 29 19 1 0
BITMAP
00108000
00108000
00000000
80020008
C0050018
40050010
400D8010
20088020
20088020
10104040
10104040
182020C0
08202080
0C603180
04401100
04401100
02800A00
02800A00
01000400
ENDCHAR
STARTCHAR Ygrave
ENCODING 7922
SWIDTH 763 0
DWIDTH 18 0
BBX 15 20 2 0
BITMAP
1800
0600
0180
0000
8002
4004
2008
1010
1830
0860
0440
0280
0380
0100
0100
0100
0100
0100
0100
0100
ENDCHAR
STARTCHAR ygrave
ENCODING 7923
SWIDTH 911 0
DWIDTH 22 0
BBX 17 20 2 0
BITMAP
040000
0B8000
00C000
000000
800080
800080
800080
800080
800080
800080
800180
400280
200480
101880
0FE080
000080
000100
800200
701C00
0FF000
ENDCHAR
STARTCHAR endash
ENCODING 8211
SWIDTH 419 0
DWIDTH 10 0
BBX 9 1 0 7
BITMAP
FF80
ENDCHAR
STARTCHAR emdash
ENCODING 8212
SWIDTH 1000 0
DWIDTH 24 0
BBX 24 1 0 7
BITMAP
FFFFFF
ENDCHAR
STARTCHAR quoteleft
ENCODING 8216
SWIDTH 163 0
DWIDTH 4 0
BBX 2 4 1 12
BITMAP
40
40
80
80
ENDCHAR
STARTCHAR quoteright
ENCODING 8217
SWIDTH 163 0
DWIDTH 4 0
BBX 2 4 1 12
BITMAP
40
40
80
80
ENDCHAR
STARTCHAR quotesinglbase
ENCODING 8218
SWIDTH 163 0
DWIDTH 4 0
BBX 2 4 1 -2
BITMAP
40
40
80
80
ENDCHAR
STARTCHAR quotedblleft
ENCODING 8220
SWIDTH 303 0
DWIDTH 7 0
BBX 5 4 1 12
BITMAP
48
48
90
90
ENDCHAR
STARTCHAR quotedblright
ENCODING 8221
SWIDTH 303 0
DWIDTH 7 0
BBX 5 4 1 12
BITMAP
48
48
90
90
ENDCHAR
STARTCHAR quotedblbase
ENCODING 8222
SWIDTH 303 0
DWIDTH 7 0
BBX 5 4 1 -2
BITMAP
48
48
90
90
ENDCHAR
STARTCHAR dagger
ENCODING 8224
SWIDTH 500 0
DWIDTH 12 0
BBX 7 16 2 0
BITMAP
10
10
10
10
FE
10
10
10
10
10
10
10
10
10
10
10
ENDCHAR
STARTCHAR daggerdbl
ENCODING 8225
SWIDTH 500 0
DWIDTH 12 0
BBX 7 16 2 0
BITMAP
10
10
10
10
FE
10
10
10
10
FE
10
10
10
10
10
10
ENDCHAR
STARTCHAR bullet
ENCODING 8226
SWIDTH 352 0
DWIDTH 8 0
BBX 5 5 2 6
BITMAP
70
F8
F8
F8
70
ENDCHAR
STARTCHAR ellipsis
ENCODING 8230
SWIDTH 555 0
DWIDTH 13 0
BBX 9 3 1 0
BITMAP
8880
8880
8880
ENDCHAR
STARTCHAR perthousand
ENCODING 8240
SWIDTH 1401 0
DWIDTH 34 0
BBX 32 16 1 0
BITMAP
3E004000
41008000
80810000
80820000
80840000
80880000
41100000
3E200000
0023E07C
00441082
00880901
01080901
02080901
04080901
08041082
1003E07C
ENDCHAR
STARTCHAR guilsinglleft
ENCODING 8249
SWIDTH 257 0
DWIDTH 6 0
BBX 4 9 1 4
BITMAP
10
20
60
40
80
40
60
20
10
ENDCHAR
STARTCHAR guilsinglright
ENCODING 8250
SWIDTH 257 0
DWIDTH 6 0
BBX 4 9 1 4
BITMAP
80
40
60
20
10
20
60
40
80
ENDCHAR
STARTCHAR fraction
ENCODING 8260
SWIDTH 200 0
DWIDTH 5 0
BBX 14 16 -5 0
BITMAP
0004
0008
0010
0020
0040
0040
0080
0100
0200
0400
0800
0800
1000
2000
4000
8000
ENDCHAR
STARTCHAR Euro
ENCODING 8364
SWIDTH 833 0
DWIDTH 20 0
BBX 17 16 1 0
BITMAP
01FC00
070300
080080
100000
100000
200000
FFF800
200000
200000
FFF000
200000
100000
100000
080080
060300
01FC00
ENDCHAR
STARTCHAR trademark
ENCODING 8482
SWIDTH 773 0
DWIDTH 19 0
BBX 15 7 1 9
BITMAP
FB06
2306
228A
228A
2252
2252
2222
ENDCHAR
STARTCHAR partialdiff
ENCODING 8706
SWIDTH 790 0
DWIDTH 19 0
BBX 15 16 2 0
BITMAP
07E0
0818
000C
0004
0002
0002
0FC2
3032
400A
8006
8004
8004
8008
4010
2060
1FC0
ENDCHAR
STARTCHAR minus
ENCODING 8722
SWIDTH 634 0
DWIDTH 15 0
BBX 11 1 2 7
BITMAP
FFE0
ENDCHAR
STARTCHAR uni2215
ENCODING 8725
SWIDTH 200 0
DWIDTH 5 0
BBX 14 16 -5 0
BITMAP
0004
0008
0010
0020
0040
0040
0080
0100
0200
0400
0800
0800
1000
2000
4000
8000
ENDCHAR
STARTCHAR approxequal
ENCODING 8776
SWIDTH 634 0
DWIDTH 15 0
BBX 12 7 2 5
BITMAP
7810
8610
81E0
0000
7810
8610
81E0
ENDCHAR
STARTCHAR notequal
ENCODING 8800
SWIDTH 634 0
DWIDTH 15 0
BBX 11 13 2 1
BITMAP
0100
0100
0200
0200
FFE0
0400
0400
0400
FFE0
0800
0800
1000
1000
ENDCHAR
STARTCHAR lessequal
ENCODING 8804
SWIDTH 634 0
DWIDTH 15 0
BBX 11 13 2 1
BITMAP
0020
00C0
0700
1C00
6000
8000
7000
1C00
0700
00C0
0020
0000
FFE0
ENDCHAR
STARTCHAR greaterequal
ENCODING 8805
SWIDTH 634 0
DWIDTH 15 0
BBX 11 13 2 1
BITMAP
8000
6000
1C00
0700
01C0
0020
00C0
0700
1C00
6000
8000
0000
FFE0
ENDCHAR
STARTCHAR fi
ENCODING 64257
SWIDTH 1104 0
DWIDTH 27 0
BBX 21 16 3 0
BITMAP
0FFE08
300008
400008
800008
800008
800008
800008
FFFE08
800008
800008
800008
800008
800008
800008
800008
800008
ENDCHAR
STARTCHAR fl
ENCODING 64258
SWIDTH 1527 0
DWIDTH 37 0
BBX 34 16 3 0
BITMAP
0FFE080000
3000080000
4000080000
8000080000
8000080000
8000080000
8000080000
FFFE080000
8000080000
8000080000
8000080000
8000080000
8000080000
8000080000
8000040000
800003FFC0
ENDCHAR
STARTCHAR .notdef
ENCODING -1
SWIDTH 1000 0
DWIDTH 24 0
BBX 1 1 0 0
BITMAP
00
ENDCHAR
ENDFONT
